<svg width="552" height="108" viewBox="0 0 552 108" fill="none" xmlns="http://www.w3.org/2000/svg">
<rect x="2.0717" y="2.18889" width="547.58" height="103.34" rx="9.23218" fill="#F7F9FA" stroke="#273455" stroke-width="3.2059"/>
<path d="M433.687 24.3374L435.202 21.108L439.269 22.9619L437.674 26.2113L433.687 24.3374ZM446.784 34.7234V39.0293H445.668C445.641 39.7337 445.562 40.345 445.429 40.8633C445.309 41.3949 445.156 41.9398 444.97 42.4979C444.691 43.2289 444.372 43.8336 444.014 44.312C443.668 44.7904 443.263 45.2024 442.797 45.5479C442.332 45.8935 441.794 46.1991 441.183 46.4649C440.571 46.7307 439.867 47.0032 439.07 47.2823C436.996 48.0265 435.116 48.3986 433.428 48.3986C431.182 48.3986 429.508 47.7873 428.405 46.5646C427.302 45.3552 426.75 43.5877 426.75 41.262C426.75 40.8234 426.797 40.3118 426.89 39.727C426.983 39.1423 427.109 38.5442 427.268 37.9329C427.441 37.3216 427.634 36.7169 427.846 36.1188C428.072 35.5075 428.312 34.956 428.564 34.4643C428.817 33.9592 429.076 33.534 429.342 33.1884C429.607 32.8429 429.873 32.6236 430.139 32.5306C430.471 32.0522 430.697 31.8329 430.817 31.8727C430.857 31.8993 430.877 31.9525 430.877 32.0322C430.877 32.0455 430.445 33.009 429.581 34.9228C428.717 36.7833 428.285 38.3249 428.285 39.5476C428.285 41.0228 428.75 42.1989 429.68 43.076C430.624 43.9532 432.026 44.3917 433.887 44.3917C434.963 44.3917 436.192 44.2455 437.575 43.9532C438.97 43.6741 440.419 43.1558 441.92 42.3983C442.837 41.8932 443.302 41.6009 443.316 41.5211C443.342 41.3351 443.362 41.149 443.376 40.963C443.389 40.7902 443.396 40.6108 443.396 40.4247C443.396 39.016 443.057 37.481 442.379 35.8198C441.794 34.4244 441.415 33.7001 441.243 33.6469L443.635 29.979C443.98 30.5903 444.525 31.7731 445.269 33.5273C445.296 33.6204 445.329 33.7665 445.369 33.9659C445.422 34.1652 445.482 34.4177 445.548 34.7234H446.784ZM446.824 48.1993L448.758 45.6476L451.748 47.8803L453.482 45.6675L456.612 48.0597L454.679 50.5914L451.668 48.2989L449.954 50.5515L446.824 48.1993ZM445.887 39.0293L445.907 34.7234H446.804C446.99 34.7234 447.323 34.7433 447.801 34.7832C448.293 34.8098 448.818 34.843 449.376 34.8829C449.934 34.9095 450.472 34.9427 450.991 34.9826C451.509 35.0091 451.901 35.0224 452.167 35.0224C454.373 35.0224 455.529 34.9028 455.635 34.6636C455.675 34.4643 455.662 34.225 455.596 33.946C455.476 33.0821 454.738 31.8196 453.383 30.1584C453.396 30.0786 453.456 29.9391 453.562 29.7397C453.669 29.5271 453.801 29.2879 453.961 29.0221C454.12 28.7563 454.293 28.4838 454.479 28.2048C454.665 27.9124 454.838 27.6399 454.998 27.3874C455.17 27.1216 455.316 26.8957 455.436 26.7097C455.569 26.5236 455.655 26.3974 455.695 26.3309C455.735 26.3309 455.835 26.4439 455.994 26.6698C456.167 26.8957 456.36 27.2014 456.572 27.5868C456.798 27.9722 457.031 28.424 457.27 28.9423C457.509 29.4606 457.722 30.0055 457.908 30.577C458.533 32.7964 458.845 34.6636 458.845 36.1786C458.845 37.3083 458.659 38.1189 458.287 38.6107C458.26 38.6372 458.147 38.6705 457.948 38.7103C457.748 38.7502 457.489 38.7967 457.17 38.8499C456.851 38.8898 456.499 38.9363 456.114 38.9894C455.742 39.0293 455.363 39.0692 454.978 39.109C454.592 39.1489 454.227 39.1821 453.881 39.2087C453.549 39.2353 453.263 39.2486 453.024 39.2486C452.798 39.2619 452.559 39.2619 452.306 39.2486C452.054 39.2486 451.781 39.2486 451.489 39.2486C451.064 39.2353 450.619 39.2154 450.153 39.1888C449.688 39.1755 449.236 39.1555 448.798 39.129C448.373 39.1024 447.981 39.0758 447.622 39.0492C447.276 39.0359 447.004 39.0293 446.804 39.0293H445.887ZM468.075 33.8463L469.949 29.7995C470.48 30.2115 470.939 30.6368 471.324 31.0754C471.709 31.5006 472.035 31.9259 472.301 32.3512C472.567 32.7765 472.786 33.1884 472.959 33.5871C473.131 33.9858 473.271 34.3646 473.377 34.7234H474.813V39.0293H473.656C473.617 39.521 473.517 40.0925 473.357 40.7437C473.198 41.4082 472.972 42.0992 472.68 42.8169C472.387 43.5345 472.015 44.2522 471.563 44.9698C471.125 45.6875 470.6 46.352 469.988 46.9633C468.433 48.4916 466.832 49.3156 465.184 49.4352C464.918 49.4618 464.646 49.4618 464.367 49.4352C463.211 49.2491 462.108 48.7508 461.058 47.9401C460.021 47.1427 459.117 46.1526 458.347 44.9698C457.788 44.0794 457.569 43.5545 457.689 43.395C457.649 43.4349 458.214 43.7472 459.383 44.3319C460.765 45.023 462.094 45.3685 463.37 45.3685C466.52 45.3685 469.251 43.4016 471.563 39.4679C471.656 39.2951 471.703 39.0891 471.703 38.8499C471.703 38.5309 471.577 38.1455 471.324 37.6937C471.085 37.2285 470.786 36.7567 470.427 36.2783C470.068 35.7866 469.676 35.3281 469.251 34.9028C468.826 34.4643 468.433 34.1121 468.075 33.8463ZM473.935 39.0293V34.7234H474.852C475.105 34.7234 475.457 34.7367 475.909 34.7633C476.361 34.7899 476.866 34.8231 477.424 34.8629C477.995 34.9028 478.587 34.9493 479.198 35.0025C479.823 35.0556 480.421 35.1022 480.992 35.142C481.577 35.1819 482.109 35.2151 482.587 35.2417C483.066 35.2683 483.444 35.2816 483.723 35.2816C485.797 35.2816 487.471 35.2683 488.747 35.2417C490.023 35.2151 490.807 35.1088 491.099 34.9228C491.019 34.7367 490.84 34.4975 490.561 34.2051C490.295 33.8994 489.963 33.5805 489.564 33.2482C489.179 32.9027 488.747 32.5572 488.269 32.2116C487.803 31.8528 487.325 31.5272 486.833 31.2348C486.355 30.9425 485.883 30.69 485.418 30.4773C484.953 30.2647 484.534 30.1318 484.162 30.0786C483.165 29.9457 482.222 29.9989 481.331 30.2381C481.132 30.278 480.926 30.3378 480.713 30.4175C480.501 30.4973 480.295 30.5836 480.095 30.6767C479.896 30.7564 479.71 30.8295 479.537 30.8959C479.378 30.9624 479.251 31.0089 479.158 31.0355C478.972 31.0089 478.946 30.8494 479.079 30.5571C479.158 30.2248 479.364 29.8527 479.697 29.4407C480.042 29.0154 480.467 28.6234 480.972 28.2646C481.477 27.8925 482.042 27.5801 482.667 27.3276C483.305 27.0751 483.969 26.9489 484.66 26.9489C485.657 26.9489 486.694 27.1814 487.77 27.6466C488.847 28.0984 490.009 28.8693 491.259 29.959C492.069 30.6634 492.787 31.3013 493.412 31.8727C494.036 32.4309 494.601 32.9093 495.106 33.308C495.624 33.7067 496.09 34.019 496.502 34.245C496.914 34.4709 497.312 34.5972 497.698 34.6237L498.894 34.7234H499.811V39.0293H497.04C497.345 39.0293 497.379 39.0359 497.139 39.0492C496.914 39.0625 496.508 39.0825 495.923 39.109C495.352 39.1356 494.654 39.1622 493.83 39.1888C493.02 39.2154 492.196 39.2419 491.358 39.2685C490.521 39.2951 489.724 39.3217 488.966 39.3483C488.209 39.3748 487.597 39.3948 487.132 39.4081C486.72 39.4213 486.315 39.428 485.916 39.428C485.531 39.428 485.145 39.428 484.76 39.428C484.189 39.428 483.544 39.4147 482.826 39.3881C482.109 39.3748 481.364 39.3483 480.594 39.3084C479.836 39.2685 479.079 39.2286 478.321 39.1888C477.577 39.1622 476.879 39.1356 476.228 39.109L473.935 39.0293ZM502.701 48.7574L504.216 45.528L508.283 47.3819L506.688 50.6313L502.701 48.7574ZM498.575 39.0293L498.595 34.7234H499.492C499.651 34.7234 499.877 34.7301 500.17 34.7433C500.475 34.7566 500.807 34.7766 501.166 34.8031C501.538 34.8297 501.917 34.8563 502.303 34.8829C502.701 34.9095 503.08 34.936 503.439 34.9626C503.811 34.9759 504.143 34.9892 504.436 35.0025C504.741 35.0158 504.98 35.0224 505.153 35.0224C507.359 34.9826 508.515 34.8629 508.622 34.6636C508.662 34.451 508.655 34.2383 508.602 34.0257C508.509 33.1087 507.765 31.8196 506.369 30.1584C506.382 30.0786 506.442 29.9324 506.549 29.7198C506.655 29.5072 506.788 29.2746 506.947 29.0221C507.107 28.7563 507.28 28.4772 507.466 28.1848C507.652 27.8925 507.824 27.62 507.984 27.3675C508.157 27.1017 508.303 26.8758 508.422 26.6897C508.555 26.5037 508.642 26.3774 508.682 26.311C508.761 26.3508 508.888 26.5236 509.06 26.8293C509.246 27.1216 509.446 27.4871 509.658 27.9257C509.884 28.351 510.11 28.8227 510.336 29.341C510.575 29.8461 510.775 30.3245 510.934 30.7763C511.413 32.4907 511.672 33.8064 511.712 34.7234H512.848V39.0293H510.835H510.575C510.562 39.016 510.516 38.9828 510.436 38.9296C509.997 38.9562 509.519 38.9894 509.001 39.0293C508.496 39.0692 508.01 39.1024 507.545 39.129C507.093 39.1688 506.695 39.2021 506.349 39.2286C506.017 39.2685 505.804 39.2884 505.711 39.2884C505.539 39.2884 505.353 39.2884 505.153 39.2884C504.954 39.2884 504.735 39.2818 504.495 39.2685C504.19 39.2552 503.798 39.2353 503.319 39.2087C502.841 39.1821 502.349 39.1555 501.844 39.129C501.339 39.1024 500.867 39.0758 500.429 39.0492C500.003 39.0359 499.691 39.0293 499.492 39.0293H498.575ZM512.011 39.0293V34.7234H519.307C519.48 34.7234 519.566 34.4443 519.566 33.8861C519.566 33.4875 519.413 32.0189 519.107 29.4806C518.815 26.9422 518.443 23.3274 517.991 18.6361L521.42 15.6858C521.526 18.6893 521.626 21.6861 521.719 24.6763C521.825 27.6532 521.932 30.6501 522.038 33.6669C522.118 36.2451 522.098 37.9063 521.978 38.6505C521.42 38.8632 520.45 38.9894 519.068 39.0293H512.011ZM529.354 15.925C529.394 16.1509 529.44 16.7025 529.493 17.5796C529.56 18.4434 529.64 19.6528 529.733 21.2077L530.111 28.3044C530.125 28.4108 530.131 28.5237 530.131 28.6433C530.131 28.7629 530.138 28.8759 530.151 28.9822L530.251 35.3613C530.251 35.6936 530.178 36.1122 530.032 36.6172C529.832 36.9893 529.593 37.3681 529.314 37.7535C529.048 38.1389 528.776 38.511 528.497 38.8698C528.218 39.2286 527.952 39.5542 527.699 39.8466C527.447 40.1523 527.241 40.3981 527.081 40.5842C527.081 40.2785 527.081 39.8599 527.081 39.3283C527.095 38.81 527.101 38.2651 527.101 37.6937C527.115 37.1089 527.121 36.5441 527.121 35.9992C527.134 35.4411 527.141 34.9892 527.141 34.6437C527.075 33.1818 527.002 31.7997 526.922 30.4973C526.842 29.1816 526.756 27.9988 526.663 26.9489C526.583 25.8857 526.51 24.9753 526.443 24.2178C526.377 23.4603 526.337 22.9088 526.324 22.5632L526.244 19.6328C527.028 18.583 527.679 17.7523 528.198 17.141C528.716 16.5297 529.101 16.1243 529.354 15.925Z" fill="#273455"/>
<path d="M435.621 84.9773C435.621 86.778 434.856 87.7144 433.535 87.7144H430.614V82.1322H433.489C434.81 82.1322 435.621 83.1766 435.621 84.9773ZM435.227 75.0013C435.227 76.73 434.509 77.6304 433.211 77.6304H430.614V72.3363H433.211C434.509 72.3363 435.227 73.2727 435.227 75.0013ZM439.632 85.8056C439.632 82.9245 438.403 80.3314 436.502 79.7192C438.078 78.9989 439.261 77.0181 439.261 73.9569C439.261 69.9594 437.29 67.4023 433.975 67.4023H426.65V92.6843H434.23C437.661 92.6843 439.632 89.9833 439.632 85.8056Z" fill="#273455"/>
<path d="M453.034 92.6843H457.23L451.342 67.4023H446.752L440.864 92.6843H445.014L445.987 88.2186H452.061L453.034 92.6843ZM451.041 83.4647H447.03L449.024 74.209L451.041 83.4647Z" fill="#273455"/>
<path d="M469.152 92.6843H473.116V67.4023H469.152V77.3063H462.986V67.4023H459.022V92.6843H462.986V82.2762H469.152V92.6843Z" fill="#273455"/>
<path d="M484.577 75.6136C484.577 77.5944 483.882 78.7828 482.398 78.7828H479.941V72.5164H482.398C483.882 72.5164 484.577 73.7408 484.577 75.6136ZM475.977 67.4023V92.6843H479.941V83.1406H480.892L484.276 92.6843H488.75L484.994 82.6724C487.498 81.5199 488.611 78.5307 488.611 75.3615C488.611 70.9677 486.617 67.4023 482.63 67.4023H475.977Z" fill="#273455"/>
<path d="M502.203 92.6843H506.398L500.51 67.4023H495.921L490.033 92.6843H494.182L495.156 88.2186H501.229L502.203 92.6843ZM500.209 83.4647H496.199L498.192 74.209L500.209 83.4647Z" fill="#273455"/>
<path d="M508.19 92.6843H512.154V67.4023H508.19V92.6843Z" fill="#273455"/>
<path d="M525.62 67.4023V83.0685L518.991 67.4023H515.027V92.6843H518.991V77.0902L525.62 92.6843H529.584V67.4023H525.62Z" fill="#273455"/>
<rect x="27.5591" y="29.4766" width="81.2635" height="48.7581" fill="white"/>
<path d="M108.823 29.4766H49.2295L60.9353 35.5713L49.2295 38.6187L60.9353 43.6977L49.2295 48.7766L59.8711 53.8556L49.2295 57.9188L60.9353 62.9977L50.2937 68.0767L60.9353 73.1557L49.2295 78.2346H108.823V29.4766Z" fill="#BF281B"/>
</svg>

