<svg width="1252" height="320" viewBox="0 0 1252 320" fill="none" xmlns="http://www.w3.org/2000/svg">
<g clip-path="url(#clip0_438_10201)">
<rect width="1252" height="320" rx="20" fill="url(#paint0_linear_438_10201)"/>
<path d="M76.993 99.46C78.579 99.798 79.853 100.591 80.815 101.839C81.777 103.061 82.258 104.465 82.258 106.051C82.258 108.339 81.452 110.159 79.84 111.511C78.254 112.837 76.031 113.5 73.171 113.5H60.418V86.122H72.742C75.524 86.122 77.695 86.759 79.255 88.033C80.841 89.307 81.634 91.036 81.634 93.22C81.634 94.832 81.205 96.171 80.347 97.237C79.515 98.303 78.397 99.044 76.993 99.46ZM67.087 97.198H71.455C72.547 97.198 73.379 96.964 73.951 96.496C74.549 96.002 74.848 95.287 74.848 94.351C74.848 93.415 74.549 92.7 73.951 92.206C73.379 91.712 72.547 91.465 71.455 91.465H67.087V97.198ZM72.001 108.118C73.119 108.118 73.977 107.871 74.575 107.377C75.199 106.857 75.511 106.116 75.511 105.154C75.511 104.192 75.186 103.438 74.536 102.892C73.912 102.346 73.041 102.073 71.923 102.073H67.087V108.118H72.001ZM107.615 91.738V113.5H100.946V110.536C100.27 111.498 99.347 112.278 98.177 112.876C97.033 113.448 95.759 113.734 94.355 113.734C92.691 113.734 91.222 113.37 89.948 112.642C88.674 111.888 87.686 110.809 86.984 109.405C86.282 108.001 85.931 106.35 85.931 104.452V91.738H92.561V103.555C92.561 105.011 92.938 106.142 93.692 106.948C94.446 107.754 95.46 108.157 96.734 108.157C98.034 108.157 99.061 107.754 99.815 106.948C100.569 106.142 100.946 105.011 100.946 103.555V91.738H107.615ZM134.635 91.738L120.985 123.835H113.809L118.801 112.759L109.948 91.738H117.397L122.428 105.349L127.42 91.738H134.635ZM151.981 86.122V113.5H145.312V86.122H151.981ZM170.074 91.504C172.622 91.504 174.65 92.336 176.158 94C177.692 95.638 178.459 97.9 178.459 100.786V113.5H171.829V101.683C171.829 100.227 171.452 99.096 170.698 98.29C169.944 97.484 168.93 97.081 167.656 97.081C166.382 97.081 165.368 97.484 164.614 98.29C163.86 99.096 163.483 100.227 163.483 101.683V113.5H156.814V91.738H163.483V94.624C164.159 93.662 165.069 92.908 166.213 92.362C167.357 91.79 168.644 91.504 170.074 91.504ZM191.946 113.812C190.048 113.812 188.358 113.487 186.876 112.837C185.394 112.187 184.224 111.303 183.366 110.185C182.508 109.041 182.027 107.767 181.923 106.363H188.514C188.592 107.117 188.943 107.728 189.567 108.196C190.191 108.664 190.958 108.898 191.868 108.898C192.7 108.898 193.337 108.742 193.779 108.43C194.247 108.092 194.481 107.663 194.481 107.143C194.481 106.519 194.156 106.064 193.506 105.778C192.856 105.466 191.803 105.128 190.347 104.764C188.787 104.4 187.487 104.023 186.447 103.633C185.407 103.217 184.51 102.58 183.756 101.722C183.002 100.838 182.625 99.655 182.625 98.173C182.625 96.925 182.963 95.794 183.639 94.78C184.341 93.74 185.355 92.921 186.681 92.323C188.033 91.725 189.632 91.426 191.478 91.426C194.208 91.426 196.353 92.102 197.913 93.454C199.499 94.806 200.409 96.6 200.643 98.836H194.481C194.377 98.082 194.039 97.484 193.467 97.042C192.921 96.6 192.193 96.379 191.283 96.379C190.503 96.379 189.905 96.535 189.489 96.847C189.073 97.133 188.865 97.536 188.865 98.056C188.865 98.68 189.19 99.148 189.84 99.46C190.516 99.772 191.556 100.084 192.96 100.396C194.572 100.812 195.885 101.228 196.899 101.644C197.913 102.034 198.797 102.684 199.551 103.594C200.331 104.478 200.734 105.674 200.76 107.182C200.76 108.456 200.396 109.6 199.668 110.614C198.966 111.602 197.939 112.382 196.587 112.954C195.261 113.526 193.714 113.812 191.946 113.812ZM216.969 107.845V113.5H213.576C211.158 113.5 209.273 112.915 207.921 111.745C206.569 110.549 205.893 108.612 205.893 105.934V97.276H203.241V91.738H205.893V86.434H212.562V91.738H216.93V97.276H212.562V106.012C212.562 106.662 212.718 107.13 213.03 107.416C213.342 107.702 213.862 107.845 214.59 107.845H216.969ZM219.358 102.58C219.358 100.344 219.774 98.381 220.606 96.691C221.464 95.001 222.621 93.701 224.077 92.791C225.533 91.881 227.158 91.426 228.952 91.426C230.486 91.426 231.825 91.738 232.969 92.362C234.139 92.986 235.036 93.805 235.66 94.819V91.738H242.329V113.5H235.66V110.419C235.01 111.433 234.1 112.252 232.93 112.876C231.786 113.5 230.447 113.812 228.913 113.812C227.145 113.812 225.533 113.357 224.077 112.447C222.621 111.511 221.464 110.198 220.606 108.508C219.774 106.792 219.358 104.816 219.358 102.58ZM235.66 102.619C235.66 100.955 235.192 99.642 234.256 98.68C233.346 97.718 232.228 97.237 230.902 97.237C229.576 97.237 228.445 97.718 227.509 98.68C226.599 99.616 226.144 100.916 226.144 102.58C226.144 104.244 226.599 105.57 227.509 106.558C228.445 107.52 229.576 108.001 230.902 108.001C232.228 108.001 233.346 107.52 234.256 106.558C235.192 105.596 235.66 104.283 235.66 102.619ZM260.413 91.504C262.961 91.504 264.989 92.336 266.497 94C268.031 95.638 268.798 97.9 268.798 100.786V113.5H262.168V101.683C262.168 100.227 261.791 99.096 261.037 98.29C260.283 97.484 259.269 97.081 257.995 97.081C256.721 97.081 255.707 97.484 254.953 98.29C254.199 99.096 253.822 100.227 253.822 101.683V113.5H247.153V91.738H253.822V94.624C254.498 93.662 255.408 92.908 256.552 92.362C257.696 91.79 258.983 91.504 260.413 91.504ZM285.562 107.845V113.5H282.169C279.751 113.5 277.866 112.915 276.514 111.745C275.162 110.549 274.486 108.612 274.486 105.934V97.276H271.834V91.738H274.486V86.434H281.155V91.738H285.523V97.276H281.155V106.012C281.155 106.662 281.311 107.13 281.623 107.416C281.935 107.702 282.455 107.845 283.183 107.845H285.562ZM295.945 84.64V113.5H289.276V84.64H295.945ZM323.008 91.738L309.358 123.835H302.182L307.174 112.759L298.321 91.738H305.77L310.801 105.349L315.793 91.738H323.008ZM328.54 113.812C327.37 113.812 326.408 113.474 325.654 112.798C324.926 112.096 324.562 111.238 324.562 110.224C324.562 109.184 324.926 108.313 325.654 107.611C326.408 106.909 327.37 106.558 328.54 106.558C329.684 106.558 330.62 106.909 331.348 107.611C332.102 108.313 332.479 109.184 332.479 110.224C332.479 111.238 332.102 112.096 331.348 112.798C330.62 113.474 329.684 113.812 328.54 113.812Z" fill="#FDF6B9"/>
<path d="M69.628 153.5H67.576L61.402 144.158V153.5H59.35V140.972H61.402L67.576 150.296V140.972H69.628V153.5ZM76.6247 153.662C75.6887 153.662 74.8427 153.452 74.0867 153.032C73.3307 152.6 72.7367 152 72.3047 151.232C71.8727 150.452 71.6567 149.552 71.6567 148.532C71.6567 147.524 71.8787 146.63 72.3227 145.85C72.7667 145.07 73.3727 144.47 74.1407 144.05C74.9087 143.63 75.7667 143.42 76.7147 143.42C77.6627 143.42 78.5207 143.63 79.2887 144.05C80.0567 144.47 80.6627 145.07 81.1067 145.85C81.5507 146.63 81.7727 147.524 81.7727 148.532C81.7727 149.54 81.5447 150.434 81.0887 151.214C80.6327 151.994 80.0087 152.6 79.2167 153.032C78.4367 153.452 77.5727 153.662 76.6247 153.662ZM76.6247 151.88C77.1527 151.88 77.6447 151.754 78.1007 151.502C78.5687 151.25 78.9467 150.872 79.2347 150.368C79.5227 149.864 79.6667 149.252 79.6667 148.532C79.6667 147.812 79.5287 147.206 79.2527 146.714C78.9767 146.21 78.6107 145.832 78.1547 145.58C77.6987 145.328 77.2067 145.202 76.6787 145.202C76.1507 145.202 75.6587 145.328 75.2027 145.58C74.7587 145.832 74.4047 146.21 74.1407 146.714C73.8767 147.206 73.7447 147.812 73.7447 148.532C73.7447 149.6 74.0147 150.428 74.5547 151.016C75.1067 151.592 75.7967 151.88 76.6247 151.88ZM95.173 147.074C95.845 147.194 96.415 147.548 96.883 148.136C97.351 148.724 97.585 149.39 97.585 150.134C97.585 150.77 97.417 151.346 97.081 151.862C96.757 152.366 96.283 152.768 95.659 153.068C95.035 153.356 94.309 153.5 93.481 153.5H88.477V140.99H93.247C94.099 140.99 94.831 141.134 95.443 141.422C96.055 141.71 96.517 142.1 96.829 142.592C97.141 143.072 97.297 143.612 97.297 144.212C97.297 144.932 97.105 145.532 96.721 146.012C96.337 146.492 95.821 146.846 95.173 147.074ZM90.529 146.246H93.067C93.739 146.246 94.261 146.096 94.633 145.796C95.017 145.484 95.209 145.04 95.209 144.464C95.209 143.9 95.017 143.462 94.633 143.15C94.261 142.826 93.739 142.664 93.067 142.664H90.529V146.246ZM93.301 151.826C93.997 151.826 94.543 151.658 94.939 151.322C95.335 150.986 95.533 150.518 95.533 149.918C95.533 149.306 95.323 148.82 94.903 148.46C94.483 148.1 93.925 147.92 93.229 147.92H90.529V151.826H93.301ZM100.859 142.268C100.487 142.268 100.175 142.142 99.9228 141.89C99.6708 141.638 99.5448 141.326 99.5448 140.954C99.5448 140.582 99.6708 140.27 99.9228 140.018C100.175 139.766 100.487 139.64 100.859 139.64C101.219 139.64 101.525 139.766 101.777 140.018C102.029 140.27 102.155 140.582 102.155 140.954C102.155 141.326 102.029 141.638 101.777 141.89C101.525 142.142 101.219 142.268 100.859 142.268ZM101.867 143.582V153.5H99.8148V143.582H101.867ZM103.877 148.496C103.877 147.5 104.081 146.618 104.489 145.85C104.909 145.082 105.473 144.488 106.181 144.068C106.901 143.636 107.699 143.42 108.575 143.42C109.223 143.42 109.859 143.564 110.483 143.852C111.119 144.128 111.623 144.5 111.995 144.968V140.18H114.065V153.5H111.995V152.006C111.659 152.486 111.191 152.882 110.591 153.194C110.003 153.506 109.325 153.662 108.557 153.662C107.693 153.662 106.901 153.446 106.181 153.014C105.473 152.57 104.909 151.958 104.489 151.178C104.081 150.386 103.877 149.492 103.877 148.496ZM111.995 148.532C111.995 147.848 111.851 147.254 111.563 146.75C111.287 146.246 110.921 145.862 110.465 145.598C110.009 145.334 109.517 145.202 108.989 145.202C108.461 145.202 107.969 145.334 107.513 145.598C107.057 145.85 106.685 146.228 106.397 146.732C106.121 147.224 105.983 147.812 105.983 148.496C105.983 149.18 106.121 149.78 106.397 150.296C106.685 150.812 107.057 151.208 107.513 151.484C107.981 151.748 108.473 151.88 108.989 151.88C109.517 151.88 110.009 151.748 110.465 151.484C110.921 151.22 111.287 150.836 111.563 150.332C111.851 149.816 111.995 149.216 111.995 148.532ZM120.36 153.662C119.58 153.662 118.878 153.524 118.254 153.248C117.642 152.96 117.156 152.576 116.796 152.096C116.436 151.604 116.244 151.058 116.22 150.458H118.344C118.38 150.878 118.578 151.232 118.938 151.52C119.31 151.796 119.772 151.934 120.324 151.934C120.9 151.934 121.344 151.826 121.656 151.61C121.98 151.382 122.142 151.094 122.142 150.746C122.142 150.374 121.962 150.098 121.602 149.918C121.254 149.738 120.696 149.54 119.928 149.324C119.184 149.12 118.578 148.922 118.11 148.73C117.642 148.538 117.234 148.244 116.886 147.848C116.55 147.452 116.382 146.93 116.382 146.282C116.382 145.754 116.538 145.274 116.85 144.842C117.162 144.398 117.606 144.05 118.182 143.798C118.77 143.546 119.442 143.42 120.198 143.42C121.326 143.42 122.232 143.708 122.916 144.284C123.612 144.848 123.984 145.622 124.032 146.606H121.98C121.944 146.162 121.764 145.808 121.44 145.544C121.116 145.28 120.678 145.148 120.126 145.148C119.586 145.148 119.172 145.25 118.884 145.454C118.596 145.658 118.452 145.928 118.452 146.264C118.452 146.528 118.548 146.75 118.74 146.93C118.932 147.11 119.166 147.254 119.442 147.362C119.718 147.458 120.126 147.584 120.666 147.74C121.386 147.932 121.974 148.13 122.43 148.334C122.898 148.526 123.3 148.814 123.636 149.198C123.972 149.582 124.146 150.092 124.158 150.728C124.158 151.292 124.002 151.796 123.69 152.24C123.378 152.684 122.934 153.032 122.358 153.284C121.794 153.536 121.128 153.662 120.36 153.662ZM128.625 151.034L126.447 156.002H125.115L126.393 151.034H128.625ZM145.372 153.5H143.32L137.146 144.158V153.5H135.094V140.972H137.146L143.32 150.296V140.972H145.372V153.5ZM152.369 153.662C151.433 153.662 150.587 153.452 149.831 153.032C149.075 152.6 148.481 152 148.049 151.232C147.617 150.452 147.401 149.552 147.401 148.532C147.401 147.524 147.623 146.63 148.067 145.85C148.511 145.07 149.117 144.47 149.885 144.05C150.653 143.63 151.511 143.42 152.459 143.42C153.407 143.42 154.265 143.63 155.033 144.05C155.801 144.47 156.407 145.07 156.851 145.85C157.295 146.63 157.517 147.524 157.517 148.532C157.517 149.54 157.289 150.434 156.833 151.214C156.377 151.994 155.753 152.6 154.961 153.032C154.181 153.452 153.317 153.662 152.369 153.662ZM152.369 151.88C152.897 151.88 153.389 151.754 153.845 151.502C154.313 151.25 154.691 150.872 154.979 150.368C155.267 149.864 155.411 149.252 155.411 148.532C155.411 147.812 155.273 147.206 154.997 146.714C154.721 146.21 154.355 145.832 153.899 145.58C153.443 145.328 152.951 145.202 152.423 145.202C151.895 145.202 151.403 145.328 150.947 145.58C150.503 145.832 150.149 146.21 149.885 146.714C149.621 147.206 149.489 147.812 149.489 148.532C149.489 149.6 149.759 150.428 150.299 151.016C150.851 151.592 151.541 151.88 152.369 151.88ZM172.865 143.582L169.787 153.5H167.627L165.629 146.174L163.631 153.5H161.471L158.375 143.582H160.463L162.533 151.556L164.639 143.582H166.781L168.797 151.52L170.849 143.582H172.865ZM195.365 140.99L191.657 153.5H189.335L186.707 144.032L183.917 153.5L181.613 153.518L178.067 140.99H180.245L182.837 151.178L185.645 140.99H187.949L190.559 151.124L193.169 140.99H195.365ZM196.373 148.496C196.373 147.5 196.577 146.618 196.985 145.85C197.405 145.082 197.969 144.488 198.677 144.068C199.397 143.636 200.189 143.42 201.053 143.42C201.833 143.42 202.511 143.576 203.087 143.888C203.675 144.188 204.143 144.566 204.491 145.022V143.582H206.561V153.5H204.491V152.024C204.143 152.492 203.669 152.882 203.069 153.194C202.469 153.506 201.785 153.662 201.017 153.662C200.165 153.662 199.385 153.446 198.677 153.014C197.969 152.57 197.405 151.958 196.985 151.178C196.577 150.386 196.373 149.492 196.373 148.496ZM204.491 148.532C204.491 147.848 204.347 147.254 204.059 146.75C203.783 146.246 203.417 145.862 202.961 145.598C202.505 145.334 202.013 145.202 201.485 145.202C200.957 145.202 200.465 145.334 200.009 145.598C199.553 145.85 199.181 146.228 198.893 146.732C198.617 147.224 198.479 147.812 198.479 148.496C198.479 149.18 198.617 149.78 198.893 150.296C199.181 150.812 199.553 151.208 200.009 151.484C200.477 151.748 200.969 151.88 201.485 151.88C202.013 151.88 202.505 151.748 202.961 151.484C203.417 151.22 203.783 150.836 204.059 150.332C204.347 149.816 204.491 149.216 204.491 148.532ZM210.3 142.268C209.928 142.268 209.616 142.142 209.364 141.89C209.112 141.638 208.986 141.326 208.986 140.954C208.986 140.582 209.112 140.27 209.364 140.018C209.616 139.766 209.928 139.64 210.3 139.64C210.66 139.64 210.966 139.766 211.218 140.018C211.47 140.27 211.596 140.582 211.596 140.954C211.596 141.326 211.47 141.638 211.218 141.89C210.966 142.142 210.66 142.268 210.3 142.268ZM211.308 143.582V153.5H209.256V143.582H211.308ZM216.396 145.256V150.746C216.396 151.118 216.48 151.388 216.648 151.556C216.828 151.712 217.128 151.79 217.548 151.79H218.808V153.5H217.188C216.264 153.5 215.556 153.284 215.064 152.852C214.572 152.42 214.326 151.718 214.326 150.746V145.256H213.156V143.582H214.326V141.116H216.396V143.582H218.808V145.256H216.396ZM221.528 153.626C221.156 153.626 220.844 153.5 220.592 153.248C220.34 152.996 220.214 152.684 220.214 152.312C220.214 151.94 220.34 151.628 220.592 151.376C220.844 151.124 221.156 150.998 221.528 150.998C221.888 150.998 222.194 151.124 222.446 151.376C222.698 151.628 222.824 151.94 222.824 152.312C222.824 152.684 222.698 152.996 222.446 153.248C222.194 153.5 221.888 153.626 221.528 153.626ZM233.839 153.626C232.999 153.626 232.243 153.482 231.571 153.194C230.899 152.894 230.371 152.474 229.987 151.934C229.603 151.394 229.411 150.764 229.411 150.044H231.607C231.655 150.584 231.865 151.028 232.237 151.376C232.621 151.724 233.155 151.898 233.839 151.898C234.547 151.898 235.099 151.73 235.495 151.394C235.891 151.046 236.089 150.602 236.089 150.062C236.089 149.642 235.963 149.3 235.711 149.036C235.471 148.772 235.165 148.568 234.793 148.424C234.433 148.28 233.929 148.124 233.281 147.956C232.465 147.74 231.799 147.524 231.283 147.308C230.779 147.08 230.347 146.732 229.987 146.264C229.627 145.796 229.447 145.172 229.447 144.392C229.447 143.672 229.627 143.042 229.987 142.502C230.347 141.962 230.851 141.548 231.499 141.26C232.147 140.972 232.897 140.828 233.749 140.828C234.961 140.828 235.951 141.134 236.719 141.746C237.499 142.346 237.931 143.174 238.015 144.23H235.747C235.711 143.774 235.495 143.384 235.099 143.06C234.703 142.736 234.181 142.574 233.533 142.574C232.945 142.574 232.465 142.724 232.093 143.024C231.721 143.324 231.535 143.756 231.535 144.32C231.535 144.704 231.649 145.022 231.877 145.274C232.117 145.514 232.417 145.706 232.777 145.85C233.137 145.994 233.629 146.15 234.253 146.318C235.081 146.546 235.753 146.774 236.269 147.002C236.797 147.23 237.241 147.584 237.601 148.064C237.973 148.532 238.159 149.162 238.159 149.954C238.159 150.59 237.985 151.19 237.637 151.754C237.301 152.318 236.803 152.774 236.143 153.122C235.495 153.458 234.727 153.626 233.839 153.626ZM245.71 143.42C246.466 143.42 247.138 143.582 247.726 143.906C248.326 144.23 248.794 144.71 249.13 145.346C249.478 145.982 249.652 146.75 249.652 147.65V153.5H247.618V147.956C247.618 147.068 247.396 146.39 246.952 145.922C246.508 145.442 245.902 145.202 245.134 145.202C244.366 145.202 243.754 145.442 243.298 145.922C242.854 146.39 242.632 147.068 242.632 147.956V153.5H240.58V140.18H242.632V144.734C242.98 144.314 243.418 143.99 243.946 143.762C244.486 143.534 245.074 143.42 245.71 143.42ZM256.572 153.662C255.636 153.662 254.79 153.452 254.034 153.032C253.278 152.6 252.684 152 252.252 151.232C251.82 150.452 251.604 149.552 251.604 148.532C251.604 147.524 251.826 146.63 252.27 145.85C252.714 145.07 253.32 144.47 254.088 144.05C254.856 143.63 255.714 143.42 256.662 143.42C257.61 143.42 258.468 143.63 259.236 144.05C260.004 144.47 260.61 145.07 261.054 145.85C261.498 146.63 261.72 147.524 261.72 148.532C261.72 149.54 261.492 150.434 261.036 151.214C260.58 151.994 259.956 152.6 259.164 153.032C258.384 153.452 257.52 153.662 256.572 153.662ZM256.572 151.88C257.1 151.88 257.592 151.754 258.048 151.502C258.516 151.25 258.894 150.872 259.182 150.368C259.47 149.864 259.614 149.252 259.614 148.532C259.614 147.812 259.476 147.206 259.2 146.714C258.924 146.21 258.558 145.832 258.102 145.58C257.646 145.328 257.154 145.202 256.626 145.202C256.098 145.202 255.606 145.328 255.15 145.58C254.706 145.832 254.352 146.21 254.088 146.714C253.824 147.206 253.692 147.812 253.692 148.532C253.692 149.6 253.962 150.428 254.502 151.016C255.054 151.592 255.744 151.88 256.572 151.88ZM265.8 145.04C266.148 144.584 266.622 144.2 267.222 143.888C267.822 143.576 268.5 143.42 269.256 143.42C270.12 143.42 270.906 143.636 271.614 144.068C272.334 144.488 272.898 145.082 273.306 145.85C273.714 146.618 273.918 147.5 273.918 148.496C273.918 149.492 273.714 150.386 273.306 151.178C272.898 151.958 272.334 152.57 271.614 153.014C270.906 153.446 270.12 153.662 269.256 153.662C268.5 153.662 267.828 153.512 267.24 153.212C266.652 152.9 266.172 152.516 265.8 152.06V158.216H263.748V143.582H265.8V145.04ZM271.83 148.496C271.83 147.812 271.686 147.224 271.398 146.732C271.122 146.228 270.75 145.85 270.282 145.598C269.826 145.334 269.334 145.202 268.806 145.202C268.29 145.202 267.798 145.334 267.33 145.598C266.874 145.862 266.502 146.246 266.214 146.75C265.938 147.254 265.8 147.848 265.8 148.532C265.8 149.216 265.938 149.816 266.214 150.332C266.502 150.836 266.874 151.22 267.33 151.484C267.798 151.748 268.29 151.88 268.806 151.88C269.334 151.88 269.826 151.748 270.282 151.484C270.75 151.208 271.122 150.812 271.398 150.296C271.686 149.78 271.83 149.18 271.83 148.496ZM288.165 150.944H282.927L282.027 153.5H279.885L284.367 140.972H286.743L291.225 153.5H289.065L288.165 150.944ZM287.589 149.27L285.555 143.456L283.503 149.27H287.589ZM295.568 145.256V150.746C295.568 151.118 295.652 151.388 295.82 151.556C296 151.712 296.3 151.79 296.72 151.79H297.98V153.5H296.36C295.436 153.5 294.728 153.284 294.236 152.852C293.744 152.42 293.498 151.718 293.498 150.746V145.256H292.328V143.582H293.498V141.116H295.568V143.582H297.98V145.256H295.568ZM308.669 153.626C307.829 153.626 307.073 153.482 306.401 153.194C305.729 152.894 305.201 152.474 304.817 151.934C304.433 151.394 304.241 150.764 304.241 150.044H306.437C306.485 150.584 306.695 151.028 307.067 151.376C307.451 151.724 307.985 151.898 308.669 151.898C309.377 151.898 309.929 151.73 310.325 151.394C310.721 151.046 310.919 150.602 310.919 150.062C310.919 149.642 310.793 149.3 310.541 149.036C310.301 148.772 309.995 148.568 309.623 148.424C309.263 148.28 308.759 148.124 308.111 147.956C307.295 147.74 306.629 147.524 306.113 147.308C305.609 147.08 305.177 146.732 304.817 146.264C304.457 145.796 304.277 145.172 304.277 144.392C304.277 143.672 304.457 143.042 304.817 142.502C305.177 141.962 305.681 141.548 306.329 141.26C306.977 140.972 307.727 140.828 308.579 140.828C309.791 140.828 310.781 141.134 311.549 141.746C312.329 142.346 312.761 143.174 312.845 144.23H310.577C310.541 143.774 310.325 143.384 309.929 143.06C309.533 142.736 309.011 142.574 308.363 142.574C307.775 142.574 307.295 142.724 306.923 143.024C306.551 143.324 306.365 143.756 306.365 144.32C306.365 144.704 306.479 145.022 306.707 145.274C306.947 145.514 307.247 145.706 307.607 145.85C307.967 145.994 308.459 146.15 309.083 146.318C309.911 146.546 310.583 146.774 311.099 147.002C311.627 147.23 312.071 147.584 312.431 148.064C312.803 148.532 312.989 149.162 312.989 149.954C312.989 150.59 312.815 151.19 312.467 151.754C312.131 152.318 311.633 152.774 310.973 153.122C310.325 153.458 309.557 153.626 308.669 153.626ZM324.501 148.298C324.501 148.67 324.477 149.006 324.429 149.306H316.851C316.911 150.098 317.205 150.734 317.733 151.214C318.261 151.694 318.909 151.934 319.677 151.934C320.781 151.934 321.561 151.472 322.017 150.548H324.231C323.931 151.46 323.385 152.21 322.593 152.798C321.813 153.374 320.841 153.662 319.677 153.662C318.729 153.662 317.877 153.452 317.121 153.032C316.377 152.6 315.789 152 315.357 151.232C314.937 150.452 314.727 149.552 314.727 148.532C314.727 147.512 314.931 146.618 315.339 145.85C315.759 145.07 316.341 144.47 317.085 144.05C317.841 143.63 318.705 143.42 319.677 143.42C320.613 143.42 321.447 143.624 322.179 144.032C322.911 144.44 323.481 145.016 323.889 145.76C324.297 146.492 324.501 147.338 324.501 148.298ZM322.359 147.65C322.347 146.894 322.077 146.288 321.549 145.832C321.021 145.376 320.367 145.148 319.587 145.148C318.879 145.148 318.273 145.376 317.769 145.832C317.265 146.276 316.965 146.882 316.869 147.65H322.359ZM328.914 145.256V150.746C328.914 151.118 328.998 151.388 329.166 151.556C329.346 151.712 329.646 151.79 330.066 151.79H331.326V153.5H329.706C328.782 153.5 328.074 153.284 327.582 152.852C327.09 152.42 326.844 151.718 326.844 150.746V145.256H325.674V143.582H326.844V141.116H328.914V143.582H331.326V145.256H328.914ZM346.641 144.716C346.641 145.352 346.491 145.952 346.191 146.516C345.891 147.08 345.411 147.542 344.751 147.902C344.091 148.25 343.245 148.424 342.213 148.424H339.945V153.5H337.893V140.99H342.213C343.173 140.99 343.983 141.158 344.643 141.494C345.315 141.818 345.813 142.262 346.137 142.826C346.473 143.39 346.641 144.02 346.641 144.716ZM342.213 146.75C342.993 146.75 343.575 146.576 343.959 146.228C344.343 145.868 344.535 145.364 344.535 144.716C344.535 143.348 343.761 142.664 342.213 142.664H339.945V146.75H342.213ZM350.65 145.022C350.95 144.518 351.346 144.128 351.838 143.852C352.342 143.564 352.936 143.42 353.62 143.42V145.544H353.098C352.294 145.544 351.682 145.748 351.262 146.156C350.854 146.564 350.65 147.272 350.65 148.28V153.5H348.598V143.582H350.65V145.022ZM356.55 142.268C356.178 142.268 355.866 142.142 355.614 141.89C355.362 141.638 355.236 141.326 355.236 140.954C355.236 140.582 355.362 140.27 355.614 140.018C355.866 139.766 356.178 139.64 356.55 139.64C356.91 139.64 357.216 139.766 357.468 140.018C357.72 140.27 357.846 140.582 357.846 140.954C357.846 141.326 357.72 141.638 357.468 141.89C357.216 142.142 356.91 142.268 356.55 142.268ZM357.558 143.582V153.5H355.506V143.582H357.558ZM359.568 148.532C359.568 147.512 359.772 146.618 360.18 145.85C360.6 145.07 361.176 144.47 361.908 144.05C362.64 143.63 363.48 143.42 364.428 143.42C365.628 143.42 366.618 143.708 367.398 144.284C368.19 144.848 368.724 145.658 369 146.714H366.786C366.606 146.222 366.318 145.838 365.922 145.562C365.526 145.286 365.028 145.148 364.428 145.148C363.588 145.148 362.916 145.448 362.412 146.048C361.92 146.636 361.674 147.464 361.674 148.532C361.674 149.6 361.92 150.434 362.412 151.034C362.916 151.634 363.588 151.934 364.428 151.934C365.616 151.934 366.402 151.412 366.786 150.368H369C368.712 151.376 368.172 152.18 367.38 152.78C366.588 153.368 365.604 153.662 364.428 153.662C363.48 153.662 362.64 153.452 361.908 153.032C361.176 152.6 360.6 152 360.18 151.232C359.772 150.452 359.568 149.552 359.568 148.532ZM380.135 148.298C380.135 148.67 380.111 149.006 380.063 149.306H372.485C372.545 150.098 372.839 150.734 373.367 151.214C373.895 151.694 374.543 151.934 375.311 151.934C376.415 151.934 377.195 151.472 377.651 150.548H379.865C379.565 151.46 379.019 152.21 378.227 152.798C377.447 153.374 376.475 153.662 375.311 153.662C374.363 153.662 373.511 153.452 372.755 153.032C372.011 152.6 371.423 152 370.991 151.232C370.571 150.452 370.361 149.552 370.361 148.532C370.361 147.512 370.565 146.618 370.973 145.85C371.393 145.07 371.975 144.47 372.719 144.05C373.475 143.63 374.339 143.42 375.311 143.42C376.247 143.42 377.081 143.624 377.813 144.032C378.545 144.44 379.115 145.016 379.523 145.76C379.931 146.492 380.135 147.338 380.135 148.298ZM377.993 147.65C377.981 146.894 377.711 146.288 377.183 145.832C376.655 145.376 376.001 145.148 375.221 145.148C374.513 145.148 373.907 145.376 373.403 145.832C372.899 146.276 372.599 146.882 372.503 147.65H377.993ZM385.755 153.662C384.975 153.662 384.273 153.524 383.649 153.248C383.037 152.96 382.551 152.576 382.191 152.096C381.831 151.604 381.639 151.058 381.615 150.458H383.739C383.775 150.878 383.973 151.232 384.333 151.52C384.705 151.796 385.167 151.934 385.719 151.934C386.295 151.934 386.739 151.826 387.051 151.61C387.375 151.382 387.537 151.094 387.537 150.746C387.537 150.374 387.357 150.098 386.997 149.918C386.649 149.738 386.091 149.54 385.323 149.324C384.579 149.12 383.973 148.922 383.505 148.73C383.037 148.538 382.629 148.244 382.281 147.848C381.945 147.452 381.777 146.93 381.777 146.282C381.777 145.754 381.933 145.274 382.245 144.842C382.557 144.398 383.001 144.05 383.577 143.798C384.165 143.546 384.837 143.42 385.593 143.42C386.721 143.42 387.627 143.708 388.311 144.284C389.007 144.848 389.379 145.622 389.427 146.606H387.375C387.339 146.162 387.159 145.808 386.835 145.544C386.511 145.28 386.073 145.148 385.521 145.148C384.981 145.148 384.567 145.25 384.279 145.454C383.991 145.658 383.847 145.928 383.847 146.264C383.847 146.528 383.943 146.75 384.135 146.93C384.327 147.11 384.561 147.254 384.837 147.362C385.113 147.458 385.521 147.584 386.061 147.74C386.781 147.932 387.369 148.13 387.825 148.334C388.293 148.526 388.695 148.814 389.031 149.198C389.367 149.582 389.541 150.092 389.553 150.728C389.553 151.292 389.397 151.796 389.085 152.24C388.773 152.684 388.329 153.032 387.753 153.284C387.189 153.536 386.523 153.662 385.755 153.662ZM392.598 153.626C392.226 153.626 391.914 153.5 391.662 153.248C391.41 152.996 391.284 152.684 391.284 152.312C391.284 151.94 391.41 151.628 391.662 151.376C391.914 151.124 392.226 150.998 392.598 150.998C392.958 150.998 393.264 151.124 393.516 151.376C393.768 151.628 393.894 151.94 393.894 152.312C393.894 152.684 393.768 152.996 393.516 153.248C393.264 153.5 392.958 153.626 392.598 153.626Z" fill="#E5E9EB"/>
<rect x="58" y="192.5" width="140" height="52" rx="26" fill="white"/>
<path d="M90.2785 214.323V217.068H93.9649V218.81H90.2785V221.712H94.4355V223.5H88.0824V212.535H94.4355V214.323H90.2785ZM101.231 223.5L99.4432 220.802L97.8588 223.5H95.5058L98.3451 219.139L95.4744 214.81H97.9529L99.7255 217.492L101.326 214.81H103.679L100.824 219.139L103.71 223.5H101.231ZM107.099 216.064C107.381 215.667 107.768 215.338 108.26 215.076C108.762 214.804 109.332 214.668 109.97 214.668C110.712 214.668 111.381 214.851 111.977 215.217C112.584 215.583 113.06 216.106 113.405 216.786C113.761 217.455 113.938 218.234 113.938 219.123C113.938 220.012 113.761 220.802 113.405 221.492C113.06 222.172 112.584 222.7 111.977 223.076C111.381 223.453 110.712 223.641 109.97 223.641C109.332 223.641 108.767 223.51 108.275 223.249C107.794 222.988 107.402 222.658 107.099 222.261V227.641H104.903V214.81H107.099V216.064ZM111.695 219.123C111.695 218.601 111.585 218.151 111.366 217.774C111.157 217.387 110.874 217.095 110.519 216.896C110.174 216.697 109.797 216.598 109.389 216.598C108.992 216.598 108.615 216.702 108.26 216.912C107.915 217.11 107.632 217.403 107.413 217.79C107.203 218.177 107.099 218.632 107.099 219.155C107.099 219.678 107.203 220.133 107.413 220.52C107.632 220.906 107.915 221.205 108.26 221.414C108.615 221.612 108.992 221.712 109.389 221.712C109.797 221.712 110.174 221.607 110.519 221.398C110.874 221.189 111.157 220.891 111.366 220.504C111.585 220.117 111.695 219.657 111.695 219.123ZM117.73 211.892V223.5H115.534V211.892H117.73ZM123.759 223.641C122.922 223.641 122.17 223.458 121.5 223.092C120.831 222.716 120.303 222.188 119.916 221.508C119.539 220.828 119.351 220.044 119.351 219.155C119.351 218.266 119.545 217.482 119.932 216.802C120.329 216.122 120.868 215.599 121.547 215.233C122.227 214.857 122.985 214.668 123.822 214.668C124.658 214.668 125.417 214.857 126.096 215.233C126.776 215.599 127.31 216.122 127.696 216.802C128.094 217.482 128.293 218.266 128.293 219.155C128.293 220.044 128.089 220.828 127.681 221.508C127.283 222.188 126.74 222.716 126.049 223.092C125.37 223.458 124.606 223.641 123.759 223.641ZM123.759 221.727C124.157 221.727 124.528 221.633 124.873 221.445C125.228 221.246 125.511 220.954 125.72 220.567C125.929 220.18 126.034 219.709 126.034 219.155C126.034 218.329 125.814 217.696 125.375 217.257C124.946 216.807 124.418 216.582 123.79 216.582C123.163 216.582 122.635 216.807 122.206 217.257C121.788 217.696 121.579 218.329 121.579 219.155C121.579 219.981 121.783 220.619 122.19 221.069C122.609 221.508 123.132 221.727 123.759 221.727ZM132.1 216.159C132.382 215.698 132.748 215.338 133.198 215.076C133.658 214.815 134.181 214.684 134.766 214.684V216.99H134.186C133.496 216.99 132.973 217.152 132.617 217.476C132.272 217.8 132.1 218.365 132.1 219.17V223.5H129.904V214.81H132.1V216.159ZM144.324 218.967C144.324 219.28 144.303 219.563 144.262 219.814H137.908C137.961 220.441 138.18 220.933 138.567 221.288C138.954 221.644 139.43 221.822 139.995 221.822C140.811 221.822 141.391 221.471 141.736 220.771H144.105C143.854 221.607 143.373 222.297 142.662 222.841C141.95 223.375 141.077 223.641 140.042 223.641C139.205 223.641 138.452 223.458 137.783 223.092C137.124 222.716 136.606 222.188 136.23 221.508C135.864 220.828 135.681 220.044 135.681 219.155C135.681 218.255 135.864 217.466 136.23 216.786C136.596 216.106 137.108 215.583 137.767 215.217C138.426 214.851 139.184 214.668 140.042 214.668C140.868 214.668 141.605 214.846 142.254 215.202C142.913 215.557 143.42 216.064 143.775 216.723C144.141 217.372 144.324 218.119 144.324 218.967ZM142.05 218.339C142.039 217.774 141.835 217.325 141.438 216.99C141.041 216.645 140.554 216.472 139.979 216.472C139.435 216.472 138.975 216.64 138.599 216.974C138.233 217.298 138.008 217.753 137.924 218.339H142.05ZM156.379 221.414H152.018L151.297 223.5H148.991L152.928 212.535H155.485L159.422 223.5H157.101L156.379 221.414ZM155.783 219.657L154.199 215.076L152.614 219.657H155.783ZM163.09 211.892V223.5H160.894V211.892H163.09ZM167.456 211.892V223.5H165.26V211.892H167.456Z" fill="#303940"/>
<g filter="url(#filter0_d_438_10201)">
<g clip-path="url(#clip1_438_10201)">
<rect x="666.826" y="-266" width="430" height="270" transform="rotate(43.1995 666.826 -266)" fill="#FFF8BA"/>
<g clip-path="url(#clip2_438_10201)">
<path d="M895.132 20.1344C895.081 20.7727 894.889 21.4155 894.624 21.9898C894.359 22.5641 893.953 23.1428 893.474 23.6531C892.994 24.1634 892.442 24.6052 891.886 24.9057C891.329 25.2062 890.7 25.4382 890.066 25.5289C889.222 25.6969 888.611 26.4943 888.779 27.338C888.947 28.1816 889.744 28.7933 890.588 28.6253C891.573 28.4528 892.412 28.1434 893.388 27.6883C894.364 27.2331 895.122 26.5726 895.806 25.8436C896.491 25.1147 897.03 24.2488 897.495 23.3144C897.893 22.453 898.144 21.4546 898.255 20.4607C898.369 19.6082 897.709 18.8508 896.856 18.7361C896.004 18.6214 895.246 19.2819 895.132 20.1344Z" fill="#232323"/>
<path d="M901.126 21.7854C900.7 23.9919 899.636 26.1477 897.993 27.8972C896.35 29.6468 894.266 30.8442 892.09 31.4079C891.247 31.5759 890.781 32.5102 890.949 33.3539C891.19 34.266 892.051 34.6634 892.895 34.4954C895.631 33.7726 898.204 32.3476 900.326 30.0878C902.38 27.9008 903.709 25.1707 904.258 22.3944C904.373 21.5418 903.849 20.6386 902.997 20.5239C902.144 20.4092 901.309 20.8599 901.126 21.7854Z" fill="#232323"/>
<path d="M907.408 23.5688C906.73 26.7736 905.127 29.7953 902.732 32.3468C900.336 34.8982 897.348 36.6192 894.265 37.5651C893.425 37.8745 892.955 38.6675 893.196 39.5796C893.505 40.4188 894.298 40.8891 895.211 40.6482C898.927 39.6116 902.331 37.5945 905.137 34.6057C907.944 31.6169 909.743 28.0938 910.544 24.3191C910.8 23.4621 910.208 22.6318 909.351 22.3758C908.426 22.1926 907.664 22.7118 907.408 23.5688Z" fill="#232323"/>
<path d="M913.69 25.3522C912.688 29.4869 910.692 33.5114 907.543 36.8647C904.394 40.218 900.576 42.5311 896.439 43.7223C895.6 44.0317 895.13 44.8247 895.37 45.7368C895.68 46.576 896.473 47.0463 897.385 46.8054C902.01 45.3866 906.316 42.8459 909.876 39.0552C913.435 35.2646 915.7 30.8071 916.826 26.1025C917.082 25.2455 916.49 24.4152 915.633 24.1591C914.776 23.9031 913.946 24.4952 913.69 25.3522Z" fill="#232323"/>
</g>
<path d="M795.235 139.708L783.111 128.113L762.272 149.901L774.396 161.496L795.235 139.708Z" fill="#FF5F00"/>
<path d="M773.461 139.742C775.466 137.642 777.922 136.025 780.644 135.015C783.366 134.005 786.283 133.627 789.172 133.91C788.665 130.348 787.166 127.001 784.846 124.251C782.526 121.501 779.479 119.459 776.054 118.359C772.628 117.259 768.963 117.144 765.475 118.029C761.988 118.914 758.82 120.761 756.333 123.362C753.846 125.962 752.141 129.209 751.413 132.732C750.684 136.255 750.962 139.912 752.214 143.285C753.465 146.658 755.641 149.611 758.492 151.806C761.342 154.001 764.753 155.35 768.334 155.698C767.922 152.824 768.17 149.893 769.058 147.129C769.947 144.364 771.452 141.838 773.461 139.742Z" fill="#EB001B"/>
<path d="M801.173 166.246C798.686 168.846 795.518 170.694 792.031 171.579C788.544 172.463 784.878 172.349 781.453 171.249C778.027 170.149 774.98 168.107 772.661 165.357C770.341 162.607 768.841 159.26 768.334 155.698C771.223 155.979 774.139 155.6 776.861 154.59C779.582 153.58 782.039 151.964 784.046 149.866C786.052 147.768 787.556 145.242 788.444 142.478C789.332 139.714 789.581 136.785 789.172 133.91C792.753 134.258 796.164 135.607 799.015 137.801C801.866 139.996 804.042 142.949 805.293 146.322C806.545 149.695 806.823 153.352 806.094 156.876C805.365 160.399 803.66 163.646 801.173 166.246ZM791.639 173.568L792.065 173.122L792.245 173.295L792.326 173.21L791.868 172.772L791.781 172.864L791.96 173.035L791.534 173.48L791.639 173.568ZM792.528 174.418L793.035 173.888L792.896 173.756L792.381 173.969L792.573 173.446L792.434 173.314L791.921 173.851L792.019 173.945L792.413 173.533L792.23 174.027L792.334 174.126L792.821 173.92L792.432 174.327L792.528 174.418Z" fill="#F79E1B"/>
</g>
<rect x="666.87" y="-264.586" width="428" height="268" rx="19" transform="rotate(43.1995 666.87 -264.586)" stroke="url(#paint1_linear_438_10201)" stroke-width="2" shape-rendering="crispEdges"/>
</g>
<g filter="url(#filter1_d_438_10201)">
<g clip-path="url(#clip3_438_10201)">
<rect x="827.111" y="-266" width="430" height="270" transform="rotate(43.1995 827.111 -266)" fill="white"/>
<g clip-path="url(#clip4_438_10201)">
<path d="M1055.42 20.1344C1055.37 20.7727 1055.17 21.4155 1054.91 21.9898C1054.64 22.5641 1054.24 23.1428 1053.76 23.6531C1053.28 24.1634 1052.73 24.6052 1052.17 24.9057C1051.61 25.2062 1050.99 25.4382 1050.35 25.5289C1049.51 25.6969 1048.9 26.4943 1049.06 27.338C1049.23 28.1816 1050.03 28.7933 1050.87 28.6253C1051.86 28.4528 1052.7 28.1434 1053.67 27.6883C1054.65 27.2331 1055.41 26.5726 1056.09 25.8436C1056.78 25.1147 1057.31 24.2488 1057.78 23.3144C1058.18 22.453 1058.43 21.4546 1058.54 20.4607C1058.65 19.6082 1057.99 18.8508 1057.14 18.7361C1056.29 18.6214 1055.53 19.2819 1055.42 20.1344Z" fill="#232323"/>
<path d="M1061.41 21.7854C1060.99 23.9919 1059.92 26.1477 1058.28 27.8972C1056.64 29.6468 1054.55 30.8442 1052.38 31.4079C1051.53 31.5759 1051.07 32.5102 1051.23 33.3539C1051.47 34.266 1052.34 34.6634 1053.18 34.4954C1055.92 33.7726 1058.49 32.3476 1060.61 30.0878C1062.66 27.9008 1063.99 25.1707 1064.54 22.3944C1064.66 21.5418 1064.13 20.6386 1063.28 20.5239C1062.43 20.4092 1061.59 20.8599 1061.41 21.7854Z" fill="#232323"/>
<path d="M1067.69 23.5688C1067.02 26.7736 1065.41 29.7953 1063.02 32.3468C1060.62 34.8982 1057.63 36.6192 1054.55 37.5651C1053.71 37.8745 1053.24 38.6675 1053.48 39.5796C1053.79 40.4188 1054.58 40.8891 1055.5 40.6482C1059.21 39.6116 1062.62 37.5945 1065.42 34.6057C1068.23 31.6169 1070.03 28.0938 1070.83 24.3191C1071.09 23.4621 1070.49 22.6318 1069.64 22.3758C1068.71 22.1926 1067.95 22.7118 1067.69 23.5688Z" fill="#232323"/>
<path d="M1073.97 25.3522C1072.97 29.4869 1070.98 33.5114 1067.83 36.8647C1064.68 40.218 1060.86 42.5311 1056.72 43.7223C1055.89 44.0317 1055.41 44.8247 1055.66 45.7368C1055.97 46.576 1056.76 47.0463 1057.67 46.8054C1062.29 45.3866 1066.6 42.8459 1070.16 39.0552C1073.72 35.2646 1075.99 30.8071 1077.11 26.1025C1077.37 25.2455 1076.78 24.4152 1075.92 24.1591C1075.06 23.9031 1074.23 24.4952 1073.97 25.3522Z" fill="#232323"/>
</g>
<path d="M967.501 157.746L963.743 154.217C962.607 153.15 961.407 152.677 959.824 153.312L937.418 162.812L942.487 167.571C942.487 167.571 945.398 166.222 946.062 165.866C946.586 166.358 951.568 171.036 952.267 171.692C951.871 172.464 950.434 174.87 950.434 174.87L954.978 179.138L967.501 157.746ZM950.883 163.534C952.298 162.903 957.451 160.393 957.451 160.393C957.369 160.479 958.866 159.762 959.611 159.318L958.493 161.209C958.493 161.209 955.462 166.364 954.821 167.396L950.801 163.621L950.883 163.534Z" fill="#232323"/>
<path d="M943.228 157.325C939.805 160.97 934.202 160.282 929.046 155.44C926.862 153.388 925.172 150.985 924.525 149.397L928.972 146.062L929.34 146.897C930.261 149.068 931.065 150.313 932.988 152.118C934.386 153.431 936.36 154.306 937.501 153.091C938.235 152.31 938.112 151.215 937.004 148.541C935.984 145.95 934.841 142.264 937.204 139.747C940.464 136.276 946.073 137.133 950.879 141.647C952.714 143.37 953.961 145.194 954.515 146.531L950.23 149.693L950.207 149.018C949.659 147.85 948.849 146.436 947.188 144.877C945.272 143.24 943.664 143.201 943.012 143.895C942.279 144.676 942.757 146.268 943.684 148.608C945.258 152.536 945.184 155.242 943.228 157.325Z" fill="#232323"/>
<path d="M911.582 105.562L911.996 105.297L919.511 112.354C920.56 113.339 921.02 114.425 920.223 115.799L914.549 125.169C916.8 119.444 916.134 112.449 911.582 105.562Z" fill="#232323" fill-opacity="0.7"/>
<path d="M933.68 125.986L909.534 136.464L904.378 131.622L913.863 112.766C915.134 117.716 914.822 123.302 913.746 126.374L912.559 128.689L928.606 121.058L933.762 125.899L933.68 125.986Z" fill="#232323"/>
<path d="M935.773 127.787L940.579 132.301L920.896 147.132L916.089 142.619L935.773 127.787Z" fill="#232323"/>
</g>
<rect x="827.155" y="-264.586" width="428" height="268" rx="19" transform="rotate(43.1995 827.155 -264.586)" stroke="url(#paint2_linear_438_10201)" stroke-width="2" shape-rendering="crispEdges"/>
</g>
<g filter="url(#filter2_d_438_10201)">
<g clip-path="url(#clip5_438_10201)">
<rect x="987.396" y="-266" width="430" height="270" transform="rotate(43.1995 987.396 -266)" fill="#323232"/>
<g clip-path="url(#clip6_438_10201)">
<path d="M1215.7 20.1344C1215.65 20.7727 1215.46 21.4155 1215.19 21.9898C1214.93 22.5641 1214.52 23.1428 1214.04 23.6531C1213.56 24.1634 1213.01 24.6052 1212.46 24.9057C1211.9 25.2062 1211.27 25.4382 1210.64 25.5289C1209.79 25.6969 1209.18 26.4943 1209.35 27.338C1209.52 28.1816 1210.31 28.7933 1211.16 28.6253C1212.14 28.4528 1212.98 28.1434 1213.96 27.6883C1214.93 27.2331 1215.69 26.5726 1216.38 25.8436C1217.06 25.1147 1217.6 24.2488 1218.07 23.3144C1218.46 22.453 1218.71 21.4546 1218.83 20.4607C1218.94 19.6082 1218.28 18.8508 1217.43 18.7361C1216.57 18.6214 1215.82 19.2819 1215.7 20.1344Z" fill="white"/>
<path d="M1221.7 21.7854C1221.27 23.9919 1220.21 26.1477 1218.56 27.8972C1216.92 29.6468 1214.84 30.8442 1212.66 31.4079C1211.82 31.5759 1211.35 32.5102 1211.52 33.3539C1211.76 34.266 1212.62 34.6634 1213.47 34.4954C1216.2 33.7726 1218.77 32.3476 1220.9 30.0878C1222.95 27.9008 1224.28 25.1707 1224.83 22.3944C1224.94 21.5418 1224.42 20.6386 1223.57 20.5239C1222.71 20.4092 1221.88 20.8599 1221.7 21.7854Z" fill="white"/>
<path d="M1227.98 23.5688C1227.3 26.7736 1225.7 29.7953 1223.3 32.3468C1220.91 34.8982 1217.92 36.6192 1214.83 37.5651C1214 37.8745 1213.53 38.6675 1213.77 39.5796C1214.08 40.4188 1214.87 40.8891 1215.78 40.6482C1219.5 39.6116 1222.9 37.5945 1225.71 34.6057C1228.51 31.6169 1230.31 28.0938 1231.11 24.3191C1231.37 23.4621 1230.78 22.6318 1229.92 22.3758C1229 22.1926 1228.23 22.7118 1227.98 23.5688Z" fill="white"/>
<path d="M1234.26 25.3522C1233.26 29.4869 1231.26 33.5114 1228.11 36.8647C1224.96 40.218 1221.15 42.5311 1217.01 43.7223C1216.17 44.0317 1215.7 44.8247 1215.94 45.7368C1216.25 46.576 1217.04 47.0463 1217.96 46.8054C1222.58 45.3866 1226.89 42.8459 1230.45 39.0552C1234.01 35.2646 1236.27 30.8071 1237.4 26.1025C1237.65 25.2455 1237.06 24.4152 1236.2 24.1591C1235.35 23.9031 1234.52 24.4952 1234.26 25.3522Z" fill="white"/>
</g>
<path d="M1115.63 139.708L1103.51 128.113L1082.67 149.901L1094.79 161.496L1115.63 139.708Z" fill="#FF5F00"/>
<path d="M1093.86 139.742C1095.86 137.642 1098.32 136.025 1101.04 135.015C1103.76 134.005 1106.68 133.627 1109.57 133.91C1109.06 130.348 1107.56 127.001 1105.24 124.251C1102.92 121.501 1099.87 119.459 1096.45 118.359C1093.02 117.259 1089.36 117.144 1085.87 118.029C1082.38 118.914 1079.22 120.761 1076.73 123.362C1074.24 125.962 1072.54 129.209 1071.81 132.732C1071.08 136.255 1071.36 139.912 1072.61 143.285C1073.86 146.658 1076.04 149.611 1078.89 151.806C1081.74 154.001 1085.15 155.35 1088.73 155.698C1088.32 152.824 1088.57 149.893 1089.45 147.129C1090.34 144.364 1091.85 141.838 1093.86 139.742Z" fill="#EB001B"/>
<path d="M1121.57 166.245C1119.08 168.846 1115.91 170.694 1112.43 171.578C1108.94 172.463 1105.27 172.349 1101.85 171.248C1098.42 170.148 1095.38 168.107 1093.06 165.357C1090.74 162.607 1089.24 159.26 1088.73 155.698C1091.62 155.979 1094.53 155.6 1097.26 154.589C1099.98 153.579 1102.43 151.964 1104.44 149.866C1106.45 147.768 1107.95 145.242 1108.84 142.478C1109.73 139.714 1109.98 136.784 1109.57 133.91C1113.15 134.258 1116.56 135.606 1119.41 137.801C1122.26 139.996 1124.44 142.949 1125.69 146.322C1126.94 149.695 1127.22 153.352 1126.49 156.875C1125.76 160.399 1124.06 163.646 1121.57 166.245ZM1112.03 173.567L1112.46 173.122L1112.64 173.294L1112.72 173.21L1112.26 172.772L1112.18 172.863L1112.36 173.035L1111.93 173.48L1112.03 173.567ZM1112.92 174.418L1113.43 173.888L1113.29 173.755L1112.78 173.969L1112.97 173.446L1112.83 173.313L1112.32 173.85L1112.41 173.944L1112.81 173.532L1112.63 174.026L1112.73 174.126L1113.22 173.92L1112.83 174.326L1112.92 174.418Z" fill="#F79E1B"/>
</g>
<rect x="987.44" y="-264.586" width="428" height="268" rx="19" transform="rotate(43.1995 987.44 -264.586)" stroke="url(#paint3_linear_438_10201)" stroke-width="2" shape-rendering="crispEdges"/>
</g>
</g>
<defs>
<filter id="filter0_d_438_10201" x="452.2" y="-291.8" width="557.885" height="550.776" filterUnits="userSpaceOnUse" color-interpolation-filters="sRGB">
<feFlood flood-opacity="0" result="BackgroundImageFix"/>
<feColorMatrix in="SourceAlpha" type="matrix" values="0 0 0 0 0 0 0 0 0 0 0 0 0 0 0 0 0 0 127 0" result="hardAlpha"/>
<feOffset dy="4"/>
<feGaussianBlur stdDeviation="14.9"/>
<feComposite in2="hardAlpha" operator="out"/>
<feColorMatrix type="matrix" values="0 0 0 0 0.175612 0 0 0 0 0.175612 0 0 0 0 0.175612 0 0 0 0.25 0"/>
<feBlend mode="normal" in2="BackgroundImageFix" result="effect1_dropShadow_438_10201"/>
<feBlend mode="normal" in="SourceGraphic" in2="effect1_dropShadow_438_10201" result="shape"/>
</filter>
<filter id="filter1_d_438_10201" x="612.485" y="-291.8" width="557.885" height="550.776" filterUnits="userSpaceOnUse" color-interpolation-filters="sRGB">
<feFlood flood-opacity="0" result="BackgroundImageFix"/>
<feColorMatrix in="SourceAlpha" type="matrix" values="0 0 0 0 0 0 0 0 0 0 0 0 0 0 0 0 0 0 127 0" result="hardAlpha"/>
<feOffset dy="4"/>
<feGaussianBlur stdDeviation="14.9"/>
<feComposite in2="hardAlpha" operator="out"/>
<feColorMatrix type="matrix" values="0 0 0 0 0.175612 0 0 0 0 0.175612 0 0 0 0 0.175612 0 0 0 0.25 0"/>
<feBlend mode="normal" in2="BackgroundImageFix" result="effect1_dropShadow_438_10201"/>
<feBlend mode="normal" in="SourceGraphic" in2="effect1_dropShadow_438_10201" result="shape"/>
</filter>
<filter id="filter2_d_438_10201" x="772.77" y="-291.8" width="557.885" height="550.776" filterUnits="userSpaceOnUse" color-interpolation-filters="sRGB">
<feFlood flood-opacity="0" result="BackgroundImageFix"/>
<feColorMatrix in="SourceAlpha" type="matrix" values="0 0 0 0 0 0 0 0 0 0 0 0 0 0 0 0 0 0 127 0" result="hardAlpha"/>
<feOffset dy="4"/>
<feGaussianBlur stdDeviation="14.9"/>
<feComposite in2="hardAlpha" operator="out"/>
<feColorMatrix type="matrix" values="0 0 0 0 0.175612 0 0 0 0 0.175612 0 0 0 0 0.175612 0 0 0 0.25 0"/>
<feBlend mode="normal" in2="BackgroundImageFix" result="effect1_dropShadow_438_10201"/>
<feBlend mode="normal" in="SourceGraphic" in2="effect1_dropShadow_438_10201" result="shape"/>
</filter>
<linearGradient id="paint0_linear_438_10201" x1="1484.5" y1="376.5" x2="1.94409e-05" y2="-7.66534e-05" gradientUnits="userSpaceOnUse">
<stop stop-color="#0404AC"/>
<stop offset="0.857189" stop-color="#01016B"/>
</linearGradient>
<linearGradient id="paint1_linear_438_10201" x1="666.826" y1="-131" x2="1096.83" y2="-131" gradientUnits="userSpaceOnUse">
<stop stop-color="#FAFAFA" stop-opacity="0.8"/>
<stop offset="1" stop-color="#FAFAFA" stop-opacity="0.1"/>
</linearGradient>
<linearGradient id="paint2_linear_438_10201" x1="827.111" y1="-131" x2="1257.11" y2="-131" gradientUnits="userSpaceOnUse">
<stop stop-color="#FAFAFA" stop-opacity="0.8"/>
<stop offset="1" stop-color="#FAFAFA" stop-opacity="0.1"/>
</linearGradient>
<linearGradient id="paint3_linear_438_10201" x1="987.396" y1="-131" x2="1417.4" y2="-131" gradientUnits="userSpaceOnUse">
<stop stop-color="#FAFAFA" stop-opacity="0.8"/>
<stop offset="1" stop-color="#FAFAFA" stop-opacity="0.1"/>
</linearGradient>
<clipPath id="clip0_438_10201">
<rect width="1252" height="320" rx="20" fill="white"/>
</clipPath>
<clipPath id="clip1_438_10201">
<rect x="666.826" y="-266" width="430" height="270" rx="20" transform="rotate(43.1995 666.826 -266)" fill="white"/>
</clipPath>
<clipPath id="clip2_438_10201">
<rect width="32" height="32" fill="white" transform="translate(900.417 8.22461) rotate(43.1995)"/>
</clipPath>
<clipPath id="clip3_438_10201">
<rect x="827.111" y="-266" width="430" height="270" rx="20" transform="rotate(43.1995 827.111 -266)" fill="white"/>
</clipPath>
<clipPath id="clip4_438_10201">
<rect width="32" height="32" fill="white" transform="translate(1060.7 8.22461) rotate(43.1995)"/>
</clipPath>
<clipPath id="clip5_438_10201">
<rect x="987.396" y="-266" width="430" height="270" rx="20" transform="rotate(43.1995 987.396 -266)" fill="white"/>
</clipPath>
<clipPath id="clip6_438_10201">
<rect width="32" height="32" fill="white" transform="translate(1220.99 8.22461) rotate(43.1995)"/>
</clipPath>
</defs>
</svg>
