<svg width="343" height="122" viewBox="0 0 343 122" fill="none" xmlns="http://www.w3.org/2000/svg">
<path d="M0 8C0 3.58172 3.58172 0 8 0H335C339.418 0 343 3.58172 343 8V114C343 118.418 339.418 122 335 122H7.99999C3.58172 122 0 118.418 0 114V8Z" fill="#F8F8F8"/>
<path d="M53.2245 21.821C54.2975 21.821 55.2351 22.0337 56.0375 22.459C56.8398 22.8843 57.4585 23.4837 57.8935 24.257C58.3381 25.0207 58.5605 25.9052 58.5605 26.9105C58.5605 27.9062 58.3381 28.7907 57.8935 29.564C57.4585 30.3373 56.835 30.9367 56.023 31.362C55.2206 31.7873 54.2878 32 53.2245 32H49.411V21.821H53.2245ZM53.065 29.854C54.0026 29.854 54.7325 29.5978 55.2545 29.0855C55.7765 28.5732 56.0375 27.8482 56.0375 26.9105C56.0375 25.9728 55.7765 25.243 55.2545 24.721C54.7325 24.199 54.0026 23.938 53.065 23.938H51.8905V29.854H53.065ZM67.5731 27.824C67.5731 28.056 67.5586 28.2977 67.5296 28.549H61.9181C61.9568 29.0517 62.1163 29.4383 62.3966 29.709C62.6866 29.97 63.0395 30.1005 63.4551 30.1005C64.0738 30.1005 64.504 29.8395 64.7456 29.3175H67.3846C67.2493 29.8492 67.0028 30.3277 66.6451 30.753C66.2971 31.1783 65.8573 31.5118 65.3256 31.7535C64.794 31.9952 64.1995 32.116 63.5421 32.116C62.7495 32.116 62.0438 31.9468 61.4251 31.6085C60.8065 31.2702 60.3231 30.7868 59.9751 30.1585C59.6271 29.5302 59.4531 28.7955 59.4531 27.9545C59.4531 27.1135 59.6223 26.3788 59.9606 25.7505C60.3086 25.1222 60.792 24.6388 61.4106 24.3005C62.0293 23.9622 62.7398 23.793 63.5421 23.793C64.3251 23.793 65.0211 23.9573 65.6301 24.286C66.2391 24.6147 66.7128 25.0835 67.0511 25.6925C67.3991 26.3015 67.5731 27.012 67.5731 27.824ZM65.0356 27.1715C65.0356 26.7462 64.8906 26.4078 64.6006 26.1565C64.3106 25.9052 63.9481 25.7795 63.5131 25.7795C63.0975 25.7795 62.7446 25.9003 62.4546 26.142C62.1743 26.3837 62.0003 26.7268 61.9326 27.1715H65.0356ZM72.1727 32.116C71.467 32.116 70.8387 31.9952 70.2877 31.7535C69.7367 31.5118 69.3017 31.1832 68.9827 30.7675C68.6637 30.3422 68.4848 29.8685 68.4462 29.3465H70.8967C70.9257 29.6268 71.0562 29.854 71.2882 30.028C71.5202 30.202 71.8053 30.289 72.1437 30.289C72.453 30.289 72.6898 30.231 72.8542 30.115C73.0282 29.9893 73.1152 29.8298 73.1152 29.6365C73.1152 29.4045 72.9943 29.2353 72.7527 29.129C72.511 29.013 72.1195 28.8873 71.5782 28.752C70.9982 28.6167 70.5148 28.4765 70.1282 28.3315C69.7415 28.1768 69.408 27.94 69.1277 27.621C68.8473 27.2923 68.7072 26.8525 68.7072 26.3015C68.7072 25.8375 68.8328 25.417 69.0842 25.04C69.3452 24.6533 69.7222 24.3488 70.2152 24.1265C70.7178 23.9042 71.3123 23.793 71.9987 23.793C73.0137 23.793 73.8112 24.0443 74.3912 24.547C74.9808 25.0497 75.3192 25.7167 75.4062 26.548H73.1152C73.0765 26.2677 72.9508 26.0453 72.7382 25.881C72.5352 25.7167 72.2645 25.6345 71.9262 25.6345C71.6362 25.6345 71.4138 25.6925 71.2592 25.8085C71.1045 25.9148 71.0272 26.0647 71.0272 26.258C71.0272 26.49 71.148 26.664 71.3897 26.78C71.641 26.896 72.0277 27.012 72.5497 27.128C73.149 27.2827 73.6372 27.4373 74.0142 27.592C74.3912 27.737 74.7198 27.9787 75.0002 28.317C75.2902 28.6457 75.44 29.0903 75.4497 29.651C75.4497 30.1247 75.3143 30.55 75.0437 30.927C74.7827 31.2943 74.4008 31.5843 73.8982 31.797C73.4052 32.0097 72.83 32.116 72.1727 32.116ZM78.2136 23.068C77.7786 23.068 77.421 22.9423 77.1406 22.691C76.87 22.43 76.7346 22.111 76.7346 21.734C76.7346 21.3473 76.87 21.0283 77.1406 20.777C77.421 20.516 77.7786 20.3855 78.2136 20.3855C78.639 20.3855 78.987 20.516 79.2576 20.777C79.538 21.0283 79.6781 21.3473 79.6781 21.734C79.6781 22.111 79.538 22.43 79.2576 22.691C78.987 22.9423 78.639 23.068 78.2136 23.068ZM79.4461 23.909V32H76.9666V23.909H79.4461ZM84.317 23.793C84.8873 23.793 85.3852 23.909 85.8105 24.141C86.2455 24.373 86.579 24.6775 86.811 25.0545V23.909H89.2905V31.9855C89.2905 32.7298 89.1407 33.4017 88.841 34.001C88.551 34.61 88.1015 35.0933 87.4925 35.451C86.8932 35.8087 86.144 35.9875 85.245 35.9875C84.0463 35.9875 83.0748 35.7023 82.3305 35.132C81.5862 34.5713 81.1608 33.8077 81.0545 32.841H83.505C83.5823 33.1503 83.766 33.392 84.056 33.566C84.346 33.7497 84.7037 33.8415 85.129 33.8415C85.6413 33.8415 86.0473 33.6917 86.347 33.392C86.6563 33.102 86.811 32.6332 86.811 31.9855V30.84C86.5693 31.217 86.2358 31.5263 85.8105 31.768C85.3852 32 84.8873 32.116 84.317 32.116C83.65 32.116 83.0458 31.9468 82.5045 31.6085C81.9632 31.2605 81.533 30.7723 81.214 30.144C80.9047 29.506 80.75 28.7713 80.75 27.94C80.75 27.1087 80.9047 26.3788 81.214 25.7505C81.533 25.1222 81.9632 24.6388 82.5045 24.3005C83.0458 23.9622 83.65 23.793 84.317 23.793ZM86.811 27.9545C86.811 27.3358 86.637 26.8477 86.289 26.49C85.9507 26.1323 85.535 25.9535 85.042 25.9535C84.549 25.9535 84.1285 26.1323 83.7805 26.49C83.4422 26.838 83.273 27.3213 83.273 27.94C83.273 28.5587 83.4422 29.0517 83.7805 29.419C84.1285 29.7767 84.549 29.9555 85.042 29.9555C85.535 29.9555 85.9507 29.7767 86.289 29.419C86.637 29.0613 86.811 28.5732 86.811 27.9545ZM96.0143 23.822C96.9616 23.822 97.7156 24.1313 98.2763 24.75C98.8466 25.359 99.1318 26.2 99.1318 27.273V32H96.6668V27.6065C96.6668 27.0652 96.5266 26.6447 96.2463 26.345C95.966 26.0453 95.589 25.8955 95.1153 25.8955C94.6416 25.8955 94.2646 26.0453 93.9843 26.345C93.704 26.6447 93.5638 27.0652 93.5638 27.6065V32H91.0843V23.909H93.5638V24.982C93.8151 24.6243 94.1535 24.344 94.5788 24.141C95.0041 23.9283 95.4826 23.822 96.0143 23.822ZM108.482 27.824C108.482 28.056 108.467 28.2977 108.438 28.549H102.827C102.865 29.0517 103.025 29.4383 103.305 29.709C103.595 29.97 103.948 30.1005 104.364 30.1005C104.982 30.1005 105.413 29.8395 105.654 29.3175H108.293C108.158 29.8492 107.911 30.3277 107.554 30.753C107.206 31.1783 106.766 31.5118 106.234 31.7535C105.703 31.9952 105.108 32.116 104.451 32.116C103.658 32.116 102.952 31.9468 102.334 31.6085C101.715 31.2702 101.232 30.7868 100.884 30.1585C100.536 29.5302 100.362 28.7955 100.362 27.9545C100.362 27.1135 100.531 26.3788 100.869 25.7505C101.217 25.1222 101.701 24.6388 102.319 24.3005C102.938 23.9622 103.648 23.793 104.451 23.793C105.234 23.793 105.93 23.9573 106.539 24.286C107.148 24.6147 107.621 25.0835 107.96 25.6925C108.308 26.3015 108.482 27.012 108.482 27.824ZM105.944 27.1715C105.944 26.7462 105.799 26.4078 105.509 26.1565C105.219 25.9052 104.857 25.7795 104.422 25.7795C104.006 25.7795 103.653 25.9003 103.363 26.142C103.083 26.3837 102.909 26.7268 102.841 27.1715H105.944ZM112.269 25.2575C112.559 24.8128 112.922 24.4648 113.357 24.2135C113.792 23.9525 114.275 23.822 114.807 23.822V26.4465H114.125C113.507 26.4465 113.043 26.5818 112.733 26.8525C112.424 27.1135 112.269 27.5775 112.269 28.2445V32H109.79V23.909H112.269V25.2575ZM125.227 26.78C125.817 26.9057 126.291 27.2005 126.648 27.6645C127.006 28.1188 127.185 28.6408 127.185 29.2305C127.185 30.0812 126.885 30.7578 126.286 31.2605C125.696 31.7535 124.87 32 123.806 32H119.065V21.821H123.647C124.681 21.821 125.488 22.0578 126.068 22.5315C126.658 23.0052 126.953 23.648 126.953 24.46C126.953 25.0593 126.793 25.5572 126.474 25.9535C126.165 26.3498 125.749 26.6253 125.227 26.78ZM121.544 25.939H123.168C123.574 25.939 123.884 25.852 124.096 25.678C124.319 25.4943 124.43 25.2285 124.43 24.8805C124.43 24.5325 124.319 24.2667 124.096 24.083C123.884 23.8993 123.574 23.8075 123.168 23.8075H121.544V25.939ZM123.371 29.999C123.787 29.999 124.106 29.9072 124.328 29.7235C124.56 29.5302 124.676 29.2547 124.676 28.897C124.676 28.5393 124.555 28.259 124.314 28.056C124.082 27.853 123.758 27.7515 123.342 27.7515H121.544V29.999H123.371ZM128.13 27.94C128.13 27.1087 128.285 26.3788 128.594 25.7505C128.913 25.1222 129.343 24.6388 129.884 24.3005C130.426 23.9622 131.03 23.793 131.697 23.793C132.267 23.793 132.765 23.909 133.19 24.141C133.625 24.373 133.959 24.6775 134.191 25.0545V23.909H136.67V32H134.191V30.8545C133.949 31.2315 133.611 31.536 133.176 31.768C132.751 32 132.253 32.116 131.682 32.116C131.025 32.116 130.426 31.9468 129.884 31.6085C129.343 31.2605 128.913 30.7723 128.594 30.144C128.285 29.506 128.13 28.7713 128.13 27.94ZM134.191 27.9545C134.191 27.3358 134.017 26.8477 133.669 26.49C133.331 26.1323 132.915 25.9535 132.422 25.9535C131.929 25.9535 131.508 26.1323 131.16 26.49C130.822 26.838 130.653 27.3213 130.653 27.94C130.653 28.5587 130.822 29.0517 131.16 29.419C131.508 29.7767 131.929 29.9555 132.422 29.9555C132.915 29.9555 133.331 29.7767 133.669 29.419C134.017 29.0613 134.191 28.5732 134.191 27.9545ZM141.538 23.793C142.109 23.793 142.606 23.909 143.032 24.141C143.467 24.373 143.8 24.6775 144.032 25.0545V23.909H146.512V31.9855C146.512 32.7298 146.362 33.4017 146.062 34.001C145.772 34.61 145.323 35.0933 144.714 35.451C144.114 35.8087 143.365 35.9875 142.466 35.9875C141.268 35.9875 140.296 35.7023 139.552 35.132C138.807 34.5713 138.382 33.8077 138.276 32.841H140.726C140.804 33.1503 140.987 33.392 141.277 33.566C141.567 33.7497 141.925 33.8415 142.35 33.8415C142.863 33.8415 143.269 33.6917 143.568 33.392C143.878 33.102 144.032 32.6332 144.032 31.9855V30.84C143.791 31.217 143.457 31.5263 143.032 31.768C142.606 32 142.109 32.116 141.538 32.116C140.871 32.116 140.267 31.9468 139.726 31.6085C139.184 31.2605 138.754 30.7723 138.435 30.144C138.126 29.506 137.971 28.7713 137.971 27.94C137.971 27.1087 138.126 26.3788 138.435 25.7505C138.754 25.1222 139.184 24.6388 139.726 24.3005C140.267 23.9622 140.871 23.793 141.538 23.793ZM144.032 27.9545C144.032 27.3358 143.858 26.8477 143.51 26.49C143.172 26.1323 142.756 25.9535 142.263 25.9535C141.77 25.9535 141.35 26.1323 141.002 26.49C140.663 26.838 140.494 27.3213 140.494 27.94C140.494 28.5587 140.663 29.0517 141.002 29.419C141.35 29.7767 141.77 29.9555 142.263 29.9555C142.756 29.9555 143.172 29.7767 143.51 29.419C143.858 29.0613 144.032 28.5732 144.032 27.9545ZM151.597 32.116C150.891 32.116 150.263 31.9952 149.712 31.7535C149.161 31.5118 148.726 31.1832 148.407 30.7675C148.088 30.3422 147.909 29.8685 147.87 29.3465H150.321C150.35 29.6268 150.48 29.854 150.712 30.028C150.944 30.202 151.23 30.289 151.568 30.289C151.877 30.289 152.114 30.231 152.278 30.115C152.452 29.9893 152.539 29.8298 152.539 29.6365C152.539 29.4045 152.419 29.2353 152.177 29.129C151.935 29.013 151.544 28.8873 151.002 28.752C150.422 28.6167 149.939 28.4765 149.552 28.3315C149.166 28.1768 148.832 27.94 148.552 27.621C148.272 27.2923 148.131 26.8525 148.131 26.3015C148.131 25.8375 148.257 25.417 148.508 25.04C148.769 24.6533 149.146 24.3488 149.639 24.1265C150.142 23.9042 150.737 23.793 151.423 23.793C152.438 23.793 153.235 24.0443 153.815 24.547C154.405 25.0497 154.743 25.7167 154.83 26.548H152.539C152.501 26.2677 152.375 26.0453 152.162 25.881C151.959 25.7167 151.689 25.6345 151.35 25.6345C151.06 25.6345 150.838 25.6925 150.683 25.8085C150.529 25.9148 150.451 26.0647 150.451 26.258C150.451 26.49 150.572 26.664 150.814 26.78C151.065 26.896 151.452 27.012 151.974 27.128C152.573 27.2827 153.061 27.4373 153.438 27.592C153.815 27.737 154.144 27.9787 154.424 28.317C154.714 28.6457 154.864 29.0903 154.874 29.651C154.874 30.1247 154.739 30.55 154.468 30.927C154.207 31.2943 153.825 31.5843 153.322 31.797C152.829 32.0097 152.254 32.116 151.597 32.116ZM159.059 29.709L157.449 33.8705H155.869L156.71 29.709H159.059ZM177.634 21.821L174.98 32H171.979L170.355 25.301L168.673 32H165.671L163.09 21.821H165.744L167.208 29.2305L169.021 21.821H171.747L173.487 29.2305L174.966 21.821H177.634ZM180.124 23.068C179.689 23.068 179.332 22.9423 179.051 22.691C178.781 22.43 178.645 22.111 178.645 21.734C178.645 21.3473 178.781 21.0283 179.051 20.777C179.332 20.516 179.689 20.3855 180.124 20.3855C180.55 20.3855 180.898 20.516 181.168 20.777C181.449 21.0283 181.589 21.3473 181.589 21.734C181.589 22.111 181.449 22.43 181.168 22.691C180.898 22.9423 180.55 23.068 180.124 23.068ZM181.357 23.909V32H178.877V23.909H181.357ZM187.663 29.8975V32H186.402C185.503 32 184.802 31.7825 184.299 31.3475C183.796 30.9028 183.545 30.1827 183.545 29.187V25.968H182.559V23.909H183.545V21.937H186.025V23.909H187.649V25.968H186.025V29.216C186.025 29.4577 186.083 29.6317 186.199 29.738C186.315 29.8443 186.508 29.8975 186.779 29.8975H187.663ZM194.018 23.822C194.946 23.822 195.69 24.1313 196.251 24.75C196.811 25.359 197.092 26.2 197.092 27.273V32H194.627V27.6065C194.627 27.0652 194.487 26.6447 194.206 26.345C193.926 26.0453 193.549 25.8955 193.075 25.8955C192.602 25.8955 192.225 26.0453 191.944 26.345C191.664 26.6447 191.524 27.0652 191.524 27.6065V32H189.044V21.27H191.524V24.9965C191.775 24.6388 192.118 24.3537 192.553 24.141C192.988 23.9283 193.476 23.822 194.018 23.822ZM202.498 32.116C201.705 32.116 200.99 31.9468 200.352 31.6085C199.723 31.2702 199.226 30.7868 198.858 30.1585C198.501 29.5302 198.322 28.7955 198.322 27.9545C198.322 27.1232 198.505 26.3933 198.873 25.765C199.24 25.127 199.743 24.6388 200.381 24.3005C201.019 23.9622 201.734 23.793 202.527 23.793C203.319 23.793 204.035 23.9622 204.673 24.3005C205.311 24.6388 205.813 25.127 206.181 25.765C206.548 26.3933 206.732 27.1232 206.732 27.9545C206.732 28.7858 206.543 29.5205 206.166 30.1585C205.799 30.7868 205.291 31.2702 204.644 31.6085C204.006 31.9468 203.29 32.116 202.498 32.116ZM202.498 29.97C202.971 29.97 203.373 29.796 203.701 29.448C204.04 29.1 204.209 28.6022 204.209 27.9545C204.209 27.3068 204.044 26.809 203.716 26.461C203.397 26.113 203 25.939 202.527 25.939C202.043 25.939 201.642 26.113 201.323 26.461C201.004 26.7993 200.845 27.2972 200.845 27.9545C200.845 28.6022 200.999 29.1 201.309 29.448C201.628 29.796 202.024 29.97 202.498 29.97ZM216.037 23.909V32H213.557V30.898C213.306 31.2557 212.963 31.5457 212.528 31.768C212.102 31.9807 211.629 32.087 211.107 32.087C210.488 32.087 209.942 31.9517 209.468 31.681C208.995 31.4007 208.627 30.9995 208.366 30.4775C208.105 29.9555 207.975 29.3417 207.975 28.636V23.909H210.44V28.3025C210.44 28.8438 210.58 29.2643 210.86 29.564C211.141 29.8637 211.518 30.0135 211.991 30.0135C212.475 30.0135 212.856 29.8637 213.137 29.564C213.417 29.2643 213.557 28.8438 213.557 28.3025V23.909H216.037ZM222.327 29.8975V32H221.066C220.167 32 219.466 31.7825 218.963 31.3475C218.461 30.9028 218.209 30.1827 218.209 29.187V25.968H217.223V23.909H218.209V21.937H220.689V23.909H222.313V25.968H220.689V29.216C220.689 29.4577 220.747 29.6317 220.863 29.738C220.979 29.8443 221.172 29.8975 221.443 29.8975H222.327ZM231.291 29.8975V32H230.029C229.13 32 228.429 31.7825 227.927 31.3475C227.424 30.9028 227.173 30.1827 227.173 29.187V25.968H226.187V23.909H227.173V21.937H229.652V23.909H231.276V25.968H229.652V29.216C229.652 29.4577 229.71 29.6317 229.826 29.738C229.942 29.8443 230.135 29.8975 230.406 29.8975H231.291ZM237.645 23.822C238.573 23.822 239.318 24.1313 239.878 24.75C240.439 25.359 240.719 26.2 240.719 27.273V32H238.254V27.6065C238.254 27.0652 238.114 26.6447 237.834 26.345C237.553 26.0453 237.176 25.8955 236.703 25.8955C236.229 25.8955 235.852 26.0453 235.572 26.345C235.291 26.6447 235.151 27.0652 235.151 27.6065V32H232.672V21.27H235.151V24.9965C235.403 24.6388 235.746 24.3537 236.181 24.141C236.616 23.9283 237.104 23.822 237.645 23.822ZM250.069 27.824C250.069 28.056 250.055 28.2977 250.026 28.549H244.414C244.453 29.0517 244.612 29.4383 244.893 29.709C245.183 29.97 245.536 30.1005 245.951 30.1005C246.57 30.1005 247 29.8395 247.242 29.3175H249.881C249.745 29.8492 249.499 30.3277 249.141 30.753C248.793 31.1783 248.353 31.5118 247.822 31.7535C247.29 31.9952 246.696 32.116 246.038 32.116C245.246 32.116 244.54 31.9468 243.921 31.6085C243.303 31.2702 242.819 30.7868 242.471 30.1585C242.123 29.5302 241.949 28.7955 241.949 27.9545C241.949 27.1135 242.118 26.3788 242.457 25.7505C242.805 25.1222 243.288 24.6388 243.907 24.3005C244.525 23.9622 245.236 23.793 246.038 23.793C246.821 23.793 247.517 23.9573 248.126 24.286C248.735 24.6147 249.209 25.0835 249.547 25.6925C249.895 26.3015 250.069 27.012 250.069 27.824ZM247.532 27.1715C247.532 26.7462 247.387 26.4078 247.097 26.1565C246.807 25.9052 246.444 25.7795 246.009 25.7795C245.594 25.7795 245.241 25.9003 244.951 26.142C244.67 26.3837 244.496 26.7268 244.429 27.1715H247.532ZM268.457 21.821L265.804 32H262.802L261.178 25.301L259.496 32H256.495L253.914 21.821H256.567L258.032 29.2305L259.844 21.821H262.57L264.31 29.2305L265.789 21.821H268.457ZM269.208 27.94C269.208 27.1087 269.362 26.3788 269.672 25.7505C269.991 25.1222 270.421 24.6388 270.962 24.3005C271.503 23.9622 272.108 23.793 272.775 23.793C273.345 23.793 273.843 23.909 274.268 24.141C274.703 24.373 275.037 24.6775 275.269 25.0545V23.909H277.748V32H275.269V30.8545C275.027 31.2315 274.689 31.536 274.254 31.768C273.828 32 273.33 32.116 272.76 32.116C272.103 32.116 271.503 31.9468 270.962 31.6085C270.421 31.2605 269.991 30.7723 269.672 30.144C269.362 29.506 269.208 28.7713 269.208 27.94ZM275.269 27.9545C275.269 27.3358 275.095 26.8477 274.747 26.49C274.408 26.1323 273.993 25.9535 273.5 25.9535C273.007 25.9535 272.586 26.1323 272.238 26.49C271.9 26.838 271.731 27.3213 271.731 27.94C271.731 28.5587 271.9 29.0517 272.238 29.419C272.586 29.7767 273.007 29.9555 273.5 29.9555C273.993 29.9555 274.408 29.7767 274.747 29.419C275.095 29.0613 275.269 28.5732 275.269 27.9545ZM280.789 23.068C280.354 23.068 279.996 22.9423 279.716 22.691C279.445 22.43 279.31 22.111 279.31 21.734C279.31 21.3473 279.445 21.0283 279.716 20.777C279.996 20.516 280.354 20.3855 280.789 20.3855C281.214 20.3855 281.562 20.516 281.833 20.777C282.113 21.0283 282.253 21.3473 282.253 21.734C282.253 22.111 282.113 22.43 281.833 22.691C281.562 22.9423 281.214 23.068 280.789 23.068ZM282.021 23.909V32H279.542V23.909H282.021ZM288.328 29.8975V32H287.066C286.167 32 285.466 31.7825 284.964 31.3475C284.461 30.9028 284.21 30.1827 284.21 29.187V25.968H283.224V23.909H284.21V21.937H286.689V23.909H288.313V25.968H286.689V29.216C286.689 29.4577 286.747 29.6317 286.863 29.738C286.979 29.8443 287.173 29.8975 287.443 29.8975H288.328ZM292.971 21.4585L292.681 28.404H290.579L290.289 21.4585H292.971ZM291.666 32.116C291.231 32.116 290.874 31.9903 290.593 31.739C290.323 31.478 290.187 31.159 290.187 30.782C290.187 30.3953 290.323 30.0715 290.593 29.8105C290.874 29.5495 291.231 29.419 291.666 29.419C292.092 29.419 292.44 29.5495 292.71 29.8105C292.991 30.0715 293.131 30.3953 293.131 30.782C293.131 31.159 292.991 31.478 292.71 31.739C292.44 31.9903 292.092 32.116 291.666 32.116Z" fill="#303940"/>
<path d="M66.9471 55.084C66.3951 55.084 65.8991 54.988 65.4591 54.796C65.0271 54.596 64.6871 54.324 64.4391 53.98C64.1911 53.628 64.0631 53.224 64.0551 52.768H65.2191C65.2591 53.16 65.4191 53.492 65.6991 53.764C65.9871 54.028 66.4031 54.16 66.9471 54.16C67.4671 54.16 67.8751 54.032 68.1711 53.776C68.4751 53.512 68.6271 53.176 68.6271 52.768C68.6271 52.448 68.5391 52.188 68.3631 51.988C68.1871 51.788 67.9671 51.636 67.7031 51.532C67.4391 51.428 67.0831 51.316 66.6351 51.196C66.0831 51.052 65.6391 50.908 65.3031 50.764C64.9751 50.62 64.6911 50.396 64.4511 50.092C64.2191 49.78 64.1031 49.364 64.1031 48.844C64.1031 48.388 64.2191 47.984 64.4511 47.632C64.6831 47.28 65.0071 47.008 65.4231 46.816C65.8471 46.624 66.3311 46.528 66.8751 46.528C67.6591 46.528 68.2991 46.724 68.7951 47.116C69.2991 47.508 69.5831 48.028 69.6471 48.676H68.4471C68.4071 48.356 68.2391 48.076 67.9431 47.836C67.6471 47.588 67.2551 47.464 66.7671 47.464C66.3111 47.464 65.9391 47.584 65.6511 47.824C65.3631 48.056 65.2191 48.384 65.2191 48.808C65.2191 49.112 65.3031 49.36 65.4711 49.552C65.6471 49.744 65.8591 49.892 66.1071 49.996C66.3631 50.092 66.7191 50.204 67.1751 50.332C67.7271 50.484 68.1711 50.636 68.5071 50.788C68.8431 50.932 69.1311 51.16 69.3711 51.472C69.6111 51.776 69.7311 52.192 69.7311 52.72C69.7311 53.128 69.6231 53.512 69.4071 53.872C69.1911 54.232 68.8711 54.524 68.4471 54.748C68.0231 54.972 67.5231 55.084 66.9471 55.084ZM74.6021 48.304C75.0981 48.304 75.5461 48.412 75.9461 48.628C76.3461 48.836 76.6581 49.152 76.8821 49.576C77.1141 50 77.2301 50.516 77.2301 51.124V55H76.1501V51.28C76.1501 50.624 75.9861 50.124 75.6581 49.78C75.3301 49.428 74.8821 49.252 74.3141 49.252C73.7381 49.252 73.2781 49.432 72.9341 49.792C72.5981 50.152 72.4301 50.676 72.4301 51.364V55H71.3381V46.12H72.4301V49.36C72.6461 49.024 72.9421 48.764 73.3181 48.58C73.7021 48.396 74.1301 48.304 74.6021 48.304ZM81.8818 55.108C81.2658 55.108 80.7058 54.968 80.2018 54.688C79.7058 54.408 79.3138 54.012 79.0258 53.5C78.7458 52.98 78.6058 52.38 78.6058 51.7C78.6058 51.028 78.7498 50.436 79.0378 49.924C79.3338 49.404 79.7338 49.008 80.2378 48.736C80.7418 48.456 81.3058 48.316 81.9298 48.316C82.5538 48.316 83.1178 48.456 83.6218 48.736C84.1258 49.008 84.5218 49.4 84.8098 49.912C85.1058 50.424 85.2538 51.02 85.2538 51.7C85.2538 52.38 85.1018 52.98 84.7978 53.5C84.5018 54.012 84.0978 54.408 83.5858 54.688C83.0738 54.968 82.5058 55.108 81.8818 55.108ZM81.8818 54.148C82.2738 54.148 82.6418 54.056 82.9858 53.872C83.3298 53.688 83.6058 53.412 83.8138 53.044C84.0298 52.676 84.1378 52.228 84.1378 51.7C84.1378 51.172 84.0338 50.724 83.8258 50.356C83.6178 49.988 83.3458 49.716 83.0098 49.54C82.6738 49.356 82.3098 49.264 81.9178 49.264C81.5178 49.264 81.1498 49.356 80.8138 49.54C80.4858 49.716 80.2218 49.988 80.0218 50.356C79.8218 50.724 79.7218 51.172 79.7218 51.7C79.7218 52.236 79.8178 52.688 80.0098 53.056C80.2098 53.424 80.4738 53.7 80.8018 53.884C81.1298 54.06 81.4898 54.148 81.8818 54.148ZM87.7816 49.636C87.9976 49.26 88.3176 48.948 88.7416 48.7C89.1736 48.444 89.6736 48.316 90.2416 48.316C90.8256 48.316 91.3536 48.456 91.8256 48.736C92.3056 49.016 92.6816 49.412 92.9536 49.924C93.2256 50.428 93.3616 51.016 93.3616 51.688C93.3616 52.352 93.2256 52.944 92.9536 53.464C92.6816 53.984 92.3056 54.388 91.8256 54.676C91.3536 54.964 90.8256 55.108 90.2416 55.108C89.6816 55.108 89.1856 54.984 88.7536 54.736C88.3296 54.48 88.0056 54.164 87.7816 53.788V58.12H86.6896V48.424H87.7816V49.636ZM92.2456 51.688C92.2456 51.192 92.1456 50.76 91.9456 50.392C91.7456 50.024 91.4736 49.744 91.1296 49.552C90.7936 49.36 90.4216 49.264 90.0136 49.264C89.6136 49.264 89.2416 49.364 88.8976 49.564C88.5616 49.756 88.2896 50.04 88.0816 50.416C87.8816 50.784 87.7816 51.212 87.7816 51.7C87.7816 52.196 87.8816 52.632 88.0816 53.008C88.2896 53.376 88.5616 53.66 88.8976 53.86C89.2416 54.052 89.6136 54.148 90.0136 54.148C90.4216 54.148 90.7936 54.052 91.1296 53.86C91.4736 53.66 91.7456 53.376 91.9456 53.008C92.1456 52.632 92.2456 52.192 92.2456 51.688ZM97.5902 50.812C97.5902 49.996 97.7742 49.264 98.1422 48.616C98.5102 47.96 99.0102 47.448 99.6422 47.08C100.282 46.712 100.99 46.528 101.766 46.528C102.678 46.528 103.474 46.748 104.154 47.188C104.834 47.628 105.33 48.252 105.642 49.06H104.334C104.102 48.556 103.766 48.168 103.326 47.896C102.894 47.624 102.374 47.488 101.766 47.488C101.182 47.488 100.658 47.624 100.194 47.896C99.7302 48.168 99.3662 48.556 99.1022 49.06C98.8382 49.556 98.7062 50.14 98.7062 50.812C98.7062 51.476 98.8382 52.06 99.1022 52.564C99.3662 53.06 99.7302 53.444 100.194 53.716C100.658 53.988 101.182 54.124 101.766 54.124C102.374 54.124 102.894 53.992 103.326 53.728C103.766 53.456 104.102 53.068 104.334 52.564H105.642C105.33 53.364 104.834 53.984 104.154 54.424C103.474 54.856 102.678 55.072 101.766 55.072C100.99 55.072 100.282 54.892 99.6422 54.532C99.0102 54.164 98.5102 53.656 98.1422 53.008C97.7742 52.36 97.5902 51.628 97.5902 50.812ZM110.532 48.304C111.028 48.304 111.476 48.412 111.876 48.628C112.276 48.836 112.588 49.152 112.812 49.576C113.044 50 113.16 50.516 113.16 51.124V55H112.08V51.28C112.08 50.624 111.916 50.124 111.588 49.78C111.26 49.428 110.812 49.252 110.244 49.252C109.668 49.252 109.208 49.432 108.864 49.792C108.528 50.152 108.36 50.676 108.36 51.364V55H107.268V46.12H108.36V49.36C108.576 49.024 108.872 48.764 109.248 48.58C109.632 48.396 110.06 48.304 110.532 48.304ZM114.536 51.688C114.536 51.016 114.672 50.428 114.944 49.924C115.216 49.412 115.588 49.016 116.06 48.736C116.54 48.456 117.072 48.316 117.656 48.316C118.232 48.316 118.732 48.44 119.156 48.688C119.58 48.936 119.896 49.248 120.104 49.624V48.424H121.208V55H120.104V53.776C119.888 54.16 119.564 54.48 119.132 54.736C118.708 54.984 118.212 55.108 117.644 55.108C117.06 55.108 116.532 54.964 116.06 54.676C115.588 54.388 115.216 53.984 114.944 53.464C114.672 52.944 114.536 52.352 114.536 51.688ZM120.104 51.7C120.104 51.204 120.004 50.772 119.804 50.404C119.604 50.036 119.332 49.756 118.988 49.564C118.652 49.364 118.28 49.264 117.872 49.264C117.464 49.264 117.092 49.36 116.756 49.552C116.42 49.744 116.152 50.024 115.952 50.392C115.752 50.76 115.652 51.192 115.652 51.688C115.652 52.192 115.752 52.632 115.952 53.008C116.152 53.376 116.42 53.66 116.756 53.86C117.092 54.052 117.464 54.148 117.872 54.148C118.28 54.148 118.652 54.052 118.988 53.86C119.332 53.66 119.604 53.376 119.804 53.008C120.004 52.632 120.104 52.196 120.104 51.7ZM126.257 48.304C127.057 48.304 127.705 48.548 128.201 49.036C128.697 49.516 128.945 50.212 128.945 51.124V55H127.865V51.28C127.865 50.624 127.701 50.124 127.373 49.78C127.045 49.428 126.597 49.252 126.029 49.252C125.453 49.252 124.993 49.432 124.649 49.792C124.313 50.152 124.145 50.676 124.145 51.364V55H123.053V48.424H124.145V49.36C124.361 49.024 124.653 48.764 125.021 48.58C125.397 48.396 125.809 48.304 126.257 48.304ZM136.729 51.46C136.729 51.668 136.717 51.888 136.693 52.12H131.437C131.477 52.768 131.697 53.276 132.097 53.644C132.505 54.004 132.997 54.184 133.573 54.184C134.045 54.184 134.437 54.076 134.749 53.86C135.069 53.636 135.293 53.34 135.421 52.972H136.597C136.421 53.604 136.069 54.12 135.541 54.52C135.013 54.912 134.357 55.108 133.573 55.108C132.949 55.108 132.389 54.968 131.893 54.688C131.405 54.408 131.021 54.012 130.741 53.5C130.461 52.98 130.321 52.38 130.321 51.7C130.321 51.02 130.457 50.424 130.729 49.912C131.001 49.4 131.381 49.008 131.869 48.736C132.365 48.456 132.933 48.316 133.573 48.316C134.197 48.316 134.749 48.452 135.229 48.724C135.709 48.996 136.077 49.372 136.333 49.852C136.597 50.324 136.729 50.86 136.729 51.46ZM135.601 51.232C135.601 50.816 135.509 50.46 135.325 50.164C135.141 49.86 134.889 49.632 134.569 49.48C134.257 49.32 133.909 49.24 133.525 49.24C132.973 49.24 132.501 49.416 132.109 49.768C131.725 50.12 131.505 50.608 131.449 51.232H135.601ZM139.262 46.12V55H138.17V46.12H139.262ZM142.251 53.488L140.907 56.716H140.175L141.051 53.488H142.251ZM153.145 46.636V55H152.053V51.208H147.793V55H146.701V46.636H147.793V50.308H152.053V46.636H153.145ZM161.01 51.46C161.01 51.668 160.998 51.888 160.974 52.12H155.718C155.758 52.768 155.978 53.276 156.378 53.644C156.786 54.004 157.278 54.184 157.854 54.184C158.326 54.184 158.718 54.076 159.03 53.86C159.35 53.636 159.574 53.34 159.702 52.972H160.878C160.702 53.604 160.35 54.12 159.822 54.52C159.294 54.912 158.638 55.108 157.854 55.108C157.23 55.108 156.67 54.968 156.174 54.688C155.686 54.408 155.302 54.012 155.022 53.5C154.742 52.98 154.602 52.38 154.602 51.7C154.602 51.02 154.738 50.424 155.01 49.912C155.282 49.4 155.662 49.008 156.15 48.736C156.646 48.456 157.214 48.316 157.854 48.316C158.478 48.316 159.03 48.452 159.51 48.724C159.99 48.996 160.358 49.372 160.614 49.852C160.878 50.324 161.01 50.86 161.01 51.46ZM159.882 51.232C159.882 50.816 159.79 50.46 159.606 50.164C159.422 49.86 159.17 49.632 158.85 49.48C158.538 49.32 158.19 49.24 157.806 49.24C157.254 49.24 156.782 49.416 156.39 49.768C156.006 50.12 155.786 50.608 155.73 51.232H159.882ZM163.543 49.492C163.735 49.116 164.007 48.824 164.359 48.616C164.719 48.408 165.155 48.304 165.667 48.304V49.432H165.379C164.155 49.432 163.543 50.096 163.543 51.424V55H162.451V48.424H163.543V49.492ZM174.836 48.304C175.348 48.304 175.804 48.412 176.204 48.628C176.604 48.836 176.92 49.152 177.152 49.576C177.384 50 177.5 50.516 177.5 51.124V55H176.42V51.28C176.42 50.624 176.256 50.124 175.928 49.78C175.608 49.428 175.172 49.252 174.62 49.252C174.052 49.252 173.6 49.436 173.264 49.804C172.928 50.164 172.76 50.688 172.76 51.376V55H171.68V51.28C171.68 50.624 171.516 50.124 171.188 49.78C170.868 49.428 170.432 49.252 169.88 49.252C169.312 49.252 168.86 49.436 168.524 49.804C168.188 50.164 168.02 50.688 168.02 51.376V55H166.928V48.424H168.02V49.372C168.236 49.028 168.524 48.764 168.884 48.58C169.252 48.396 169.656 48.304 170.096 48.304C170.648 48.304 171.136 48.428 171.56 48.676C171.984 48.924 172.3 49.288 172.508 49.768C172.692 49.304 172.996 48.944 173.42 48.688C173.844 48.432 174.316 48.304 174.836 48.304ZM185.291 51.46C185.291 51.668 185.279 51.888 185.255 52.12H179.999C180.039 52.768 180.259 53.276 180.659 53.644C181.067 54.004 181.559 54.184 182.135 54.184C182.607 54.184 182.999 54.076 183.311 53.86C183.631 53.636 183.855 53.34 183.983 52.972H185.159C184.983 53.604 184.631 54.12 184.103 54.52C183.575 54.912 182.919 55.108 182.135 55.108C181.511 55.108 180.951 54.968 180.455 54.688C179.967 54.408 179.583 54.012 179.303 53.5C179.023 52.98 178.883 52.38 178.883 51.7C178.883 51.02 179.019 50.424 179.291 49.912C179.563 49.4 179.943 49.008 180.431 48.736C180.927 48.456 181.495 48.316 182.135 48.316C182.759 48.316 183.311 48.452 183.791 48.724C184.271 48.996 184.639 49.372 184.895 49.852C185.159 50.324 185.291 50.86 185.291 51.46ZM184.163 51.232C184.163 50.816 184.071 50.46 183.887 50.164C183.703 49.86 183.451 49.632 183.131 49.48C182.819 49.32 182.471 49.24 182.087 49.24C181.535 49.24 181.063 49.416 180.671 49.768C180.287 50.12 180.067 50.608 180.011 51.232H184.163ZM183.263 47.116V47.932L180.707 46.564V45.616L183.263 47.116ZM189.061 55.108C188.557 55.108 188.105 55.024 187.705 54.856C187.305 54.68 186.989 54.44 186.757 54.136C186.525 53.824 186.397 53.468 186.373 53.068H187.501C187.533 53.396 187.685 53.664 187.957 53.872C188.237 54.08 188.601 54.184 189.049 54.184C189.465 54.184 189.793 54.092 190.033 53.908C190.273 53.724 190.393 53.492 190.393 53.212C190.393 52.924 190.265 52.712 190.009 52.576C189.753 52.432 189.357 52.292 188.821 52.156C188.333 52.028 187.933 51.9 187.621 51.772C187.317 51.636 187.053 51.44 186.829 51.184C186.613 50.92 186.505 50.576 186.505 50.152C186.505 49.816 186.605 49.508 186.805 49.228C187.005 48.948 187.289 48.728 187.657 48.568C188.025 48.4 188.445 48.316 188.917 48.316C189.645 48.316 190.233 48.5 190.681 48.868C191.129 49.236 191.369 49.74 191.401 50.38H190.309C190.285 50.036 190.145 49.76 189.889 49.552C189.641 49.344 189.305 49.24 188.881 49.24C188.489 49.24 188.177 49.324 187.945 49.492C187.713 49.66 187.597 49.88 187.597 50.152C187.597 50.368 187.665 50.548 187.801 50.692C187.945 50.828 188.121 50.94 188.329 51.028C188.545 51.108 188.841 51.2 189.217 51.304C189.689 51.432 190.073 51.56 190.369 51.688C190.665 51.808 190.917 51.992 191.125 52.24C191.341 52.488 191.453 52.812 191.461 53.212C191.461 53.572 191.361 53.896 191.161 54.184C190.961 54.472 190.677 54.7 190.309 54.868C189.949 55.028 189.533 55.108 189.061 55.108ZM194.13 53.488L192.786 56.716H192.054L192.93 53.488H194.13ZM203.308 46.636V47.524H199.672V50.344H202.624V51.232H199.672V55H198.58V46.636H203.308ZM210.627 51.46C210.627 51.668 210.615 51.888 210.591 52.12H205.335C205.375 52.768 205.595 53.276 205.995 53.644C206.403 54.004 206.895 54.184 207.471 54.184C207.943 54.184 208.335 54.076 208.647 53.86C208.967 53.636 209.191 53.34 209.319 52.972H210.495C210.319 53.604 209.967 54.12 209.439 54.52C208.911 54.912 208.255 55.108 207.471 55.108C206.847 55.108 206.287 54.968 205.791 54.688C205.303 54.408 204.919 54.012 204.639 53.5C204.359 52.98 204.219 52.38 204.219 51.7C204.219 51.02 204.355 50.424 204.627 49.912C204.899 49.4 205.279 49.008 205.767 48.736C206.263 48.456 206.831 48.316 207.471 48.316C208.095 48.316 208.647 48.452 209.127 48.724C209.607 48.996 209.975 49.372 210.231 49.852C210.495 50.324 210.627 50.86 210.627 51.46ZM209.499 51.232C209.499 50.816 209.407 50.46 209.223 50.164C209.039 49.86 208.787 49.632 208.467 49.48C208.155 49.32 207.807 49.24 207.423 49.24C206.871 49.24 206.399 49.416 206.007 49.768C205.623 50.12 205.403 50.608 205.347 51.232H209.499ZM215.273 48.304C216.073 48.304 216.721 48.548 217.217 49.036C217.713 49.516 217.961 50.212 217.961 51.124V55H216.881V51.28C216.881 50.624 216.717 50.124 216.389 49.78C216.061 49.428 215.613 49.252 215.045 49.252C214.469 49.252 214.009 49.432 213.665 49.792C213.329 50.152 213.161 50.676 213.161 51.364V55H212.069V48.424H213.161V49.36C213.377 49.024 213.669 48.764 214.037 48.58C214.413 48.396 214.825 48.304 215.273 48.304ZM219.336 51.688C219.336 51.016 219.472 50.428 219.744 49.924C220.016 49.412 220.388 49.016 220.86 48.736C221.34 48.456 221.876 48.316 222.468 48.316C222.98 48.316 223.456 48.436 223.896 48.676C224.336 48.908 224.672 49.216 224.904 49.6V46.12H226.008V55H224.904V53.764C224.688 54.156 224.368 54.48 223.944 54.736C223.52 54.984 223.024 55.108 222.456 55.108C221.872 55.108 221.34 54.964 220.86 54.676C220.388 54.388 220.016 53.984 219.744 53.464C219.472 52.944 219.336 52.352 219.336 51.688ZM224.904 51.7C224.904 51.204 224.804 50.772 224.604 50.404C224.404 50.036 224.132 49.756 223.788 49.564C223.452 49.364 223.08 49.264 222.672 49.264C222.264 49.264 221.892 49.36 221.556 49.552C221.22 49.744 220.952 50.024 220.752 50.392C220.552 50.76 220.452 51.192 220.452 51.688C220.452 52.192 220.552 52.632 220.752 53.008C220.952 53.376 221.22 53.66 221.556 53.86C221.892 54.052 222.264 54.148 222.672 54.148C223.08 54.148 223.452 54.052 223.788 53.86C224.132 53.66 224.404 53.376 224.604 53.008C224.804 52.632 224.904 52.196 224.904 51.7ZM228.418 47.356C228.21 47.356 228.034 47.284 227.89 47.14C227.746 46.996 227.674 46.82 227.674 46.612C227.674 46.404 227.746 46.228 227.89 46.084C228.034 45.94 228.21 45.868 228.418 45.868C228.618 45.868 228.786 45.94 228.922 46.084C229.066 46.228 229.138 46.404 229.138 46.612C229.138 46.82 229.066 46.996 228.922 47.14C228.786 47.284 228.618 47.356 228.418 47.356ZM228.946 48.424V55H227.854V48.424H228.946ZM240.426 55L239.334 53.896C238.926 54.32 238.49 54.636 238.026 54.844C237.562 55.044 237.038 55.144 236.454 55.144C235.878 55.144 235.366 55.04 234.918 54.832C234.478 54.624 234.134 54.328 233.886 53.944C233.646 53.56 233.526 53.112 233.526 52.6C233.526 52.016 233.69 51.504 234.018 51.064C234.354 50.616 234.846 50.264 235.494 50.008C235.238 49.704 235.054 49.424 234.942 49.168C234.83 48.912 234.774 48.632 234.774 48.328C234.774 47.976 234.862 47.66 235.038 47.38C235.222 47.092 235.482 46.868 235.818 46.708C236.154 46.548 236.542 46.468 236.982 46.468C237.414 46.468 237.79 46.552 238.11 46.72C238.43 46.888 238.67 47.124 238.83 47.428C238.99 47.724 239.062 48.056 239.046 48.424H237.954C237.962 48.096 237.87 47.84 237.678 47.656C237.486 47.464 237.238 47.368 236.934 47.368C236.614 47.368 236.354 47.46 236.154 47.644C235.962 47.82 235.866 48.048 235.866 48.328C235.866 48.568 235.93 48.8 236.058 49.024C236.194 49.248 236.418 49.524 236.73 49.852L239.226 52.36L239.442 52.024L240.258 50.656H241.434L240.45 52.36C240.314 52.6 240.154 52.852 239.97 53.116L241.854 55H240.426ZM236.454 54.208C236.886 54.208 237.274 54.124 237.618 53.956C237.97 53.788 238.302 53.528 238.614 53.176L236.154 50.704C235.13 51.096 234.618 51.716 234.618 52.564C234.618 53.036 234.786 53.428 235.122 53.74C235.466 54.052 235.91 54.208 236.454 54.208ZM253.984 48.304C254.496 48.304 254.952 48.412 255.352 48.628C255.752 48.836 256.068 49.152 256.3 49.576C256.532 50 256.648 50.516 256.648 51.124V55H255.568V51.28C255.568 50.624 255.404 50.124 255.076 49.78C254.756 49.428 254.32 49.252 253.768 49.252C253.2 49.252 252.748 49.436 252.412 49.804C252.076 50.164 251.908 50.688 251.908 51.376V55H250.828V51.28C250.828 50.624 250.664 50.124 250.336 49.78C250.016 49.428 249.58 49.252 249.028 49.252C248.46 49.252 248.008 49.436 247.672 49.804C247.336 50.164 247.168 50.688 247.168 51.376V55H246.076V48.424H247.168V49.372C247.384 49.028 247.672 48.764 248.032 48.58C248.4 48.396 248.804 48.304 249.244 48.304C249.796 48.304 250.284 48.428 250.708 48.676C251.132 48.924 251.448 49.288 251.656 49.768C251.84 49.304 252.144 48.944 252.568 48.688C252.992 48.432 253.464 48.304 253.984 48.304ZM261.308 55.108C260.692 55.108 260.132 54.968 259.628 54.688C259.132 54.408 258.74 54.012 258.452 53.5C258.172 52.98 258.032 52.38 258.032 51.7C258.032 51.028 258.176 50.436 258.464 49.924C258.76 49.404 259.16 49.008 259.664 48.736C260.168 48.456 260.732 48.316 261.356 48.316C261.98 48.316 262.544 48.456 263.048 48.736C263.552 49.008 263.948 49.4 264.236 49.912C264.532 50.424 264.68 51.02 264.68 51.7C264.68 52.38 264.528 52.98 264.224 53.5C263.928 54.012 263.524 54.408 263.012 54.688C262.5 54.968 261.932 55.108 261.308 55.108ZM261.308 54.148C261.7 54.148 262.068 54.056 262.412 53.872C262.756 53.688 263.032 53.412 263.24 53.044C263.456 52.676 263.564 52.228 263.564 51.7C263.564 51.172 263.46 50.724 263.252 50.356C263.044 49.988 262.772 49.716 262.436 49.54C262.1 49.356 261.736 49.264 261.344 49.264C260.944 49.264 260.576 49.356 260.24 49.54C259.912 49.716 259.648 49.988 259.448 50.356C259.248 50.724 259.148 51.172 259.148 51.7C259.148 52.236 259.244 52.688 259.436 53.056C259.636 53.424 259.9 53.7 260.228 53.884C260.556 54.06 260.916 54.148 261.308 54.148ZM267.207 49.492C267.399 49.116 267.671 48.824 268.023 48.616C268.383 48.408 268.819 48.304 269.331 48.304V49.432H269.043C267.819 49.432 267.207 50.096 267.207 51.424V55H266.115V48.424H267.207V49.492ZM276.592 51.46C276.592 51.668 276.58 51.888 276.556 52.12H271.3C271.34 52.768 271.56 53.276 271.96 53.644C272.368 54.004 272.86 54.184 273.436 54.184C273.908 54.184 274.3 54.076 274.612 53.86C274.932 53.636 275.156 53.34 275.284 52.972H276.46C276.284 53.604 275.932 54.12 275.404 54.52C274.876 54.912 274.22 55.108 273.436 55.108C272.812 55.108 272.252 54.968 271.756 54.688C271.268 54.408 270.884 54.012 270.604 53.5C270.324 52.98 270.184 52.38 270.184 51.7C270.184 51.02 270.32 50.424 270.592 49.912C270.864 49.4 271.244 49.008 271.732 48.736C272.228 48.456 272.796 48.316 273.436 48.316C274.06 48.316 274.612 48.452 275.092 48.724C275.572 48.996 275.94 49.372 276.196 49.852C276.46 50.324 276.592 50.86 276.592 51.46ZM275.464 51.232C275.464 50.816 275.372 50.46 275.188 50.164C275.004 49.86 274.752 49.632 274.432 49.48C274.12 49.32 273.772 49.24 273.388 49.24C272.836 49.24 272.364 49.416 271.972 49.768C271.588 50.12 271.368 50.608 271.312 51.232H275.464ZM278.381 55.072C278.173 55.072 277.997 55 277.853 54.856C277.709 54.712 277.637 54.536 277.637 54.328C277.637 54.12 277.709 53.944 277.853 53.8C277.997 53.656 278.173 53.584 278.381 53.584C278.581 53.584 278.749 53.656 278.885 53.8C279.029 53.944 279.101 54.12 279.101 54.328C279.101 54.536 279.029 54.712 278.885 54.856C278.749 55 278.581 55.072 278.381 55.072Z" fill="#5B6871"/>
<rect x="126.5" y="72" width="90" height="34" rx="17" fill="#1C305D"/>
<path d="M150.864 88.716C151.312 88.796 151.692 89.032 152.004 89.424C152.316 89.816 152.472 90.26 152.472 90.756C152.472 91.18 152.36 91.564 152.136 91.908C151.92 92.244 151.604 92.512 151.188 92.712C150.772 92.904 150.288 93 149.736 93H146.4V84.66H149.58C150.148 84.66 150.636 84.756 151.044 84.948C151.452 85.14 151.76 85.4 151.968 85.728C152.176 86.048 152.28 86.408 152.28 86.808C152.28 87.288 152.152 87.688 151.896 88.008C151.64 88.328 151.296 88.564 150.864 88.716ZM147.768 88.164H149.46C149.908 88.164 150.256 88.064 150.504 87.864C150.76 87.656 150.888 87.36 150.888 86.976C150.888 86.6 150.76 86.308 150.504 86.1C150.256 85.884 149.908 85.776 149.46 85.776H147.768V88.164ZM149.616 91.884C150.08 91.884 150.444 91.772 150.708 91.548C150.972 91.324 151.104 91.012 151.104 90.612C151.104 90.204 150.964 89.88 150.684 89.64C150.404 89.4 150.032 89.28 149.568 89.28H147.768V91.884H149.616ZM159.947 86.388V93H158.579V92.22C158.363 92.492 158.079 92.708 157.727 92.868C157.383 93.02 157.015 93.096 156.623 93.096C156.103 93.096 155.635 92.988 155.219 92.772C154.811 92.556 154.487 92.236 154.247 91.812C154.015 91.388 153.899 90.876 153.899 90.276V86.388H155.255V90.072C155.255 90.664 155.403 91.12 155.699 91.44C155.995 91.752 156.399 91.908 156.911 91.908C157.423 91.908 157.827 91.752 158.123 91.44C158.427 91.12 158.579 90.664 158.579 90.072V86.388H159.947ZM167.704 86.388L163.648 96.108H162.232L163.576 92.892L160.972 86.388H162.496L164.356 91.428L166.288 86.388H167.704ZM178.705 93H177.337L173.221 86.772V93H171.853V84.648H173.221L177.337 90.864V84.648H178.705V93ZM183.37 93.108C182.746 93.108 182.182 92.968 181.678 92.688C181.174 92.4 180.778 92 180.49 91.488C180.202 90.968 180.058 90.368 180.058 89.688C180.058 89.016 180.206 88.42 180.502 87.9C180.798 87.38 181.202 86.98 181.714 86.7C182.226 86.42 182.798 86.28 183.43 86.28C184.062 86.28 184.634 86.42 185.146 86.7C185.658 86.98 186.062 87.38 186.358 87.9C186.654 88.42 186.802 89.016 186.802 89.688C186.802 90.36 186.65 90.956 186.346 91.476C186.042 91.996 185.626 92.4 185.098 92.688C184.578 92.968 184.002 93.108 183.37 93.108ZM183.37 91.92C183.722 91.92 184.05 91.836 184.354 91.668C184.666 91.5 184.918 91.248 185.11 90.912C185.302 90.576 185.398 90.168 185.398 89.688C185.398 89.208 185.306 88.804 185.122 88.476C184.938 88.14 184.694 87.888 184.39 87.72C184.086 87.552 183.758 87.468 183.406 87.468C183.054 87.468 182.726 87.552 182.422 87.72C182.126 87.888 181.89 88.14 181.714 88.476C181.538 88.804 181.45 89.208 181.45 89.688C181.45 90.4 181.63 90.952 181.99 91.344C182.358 91.728 182.818 91.92 183.37 91.92ZM197.034 86.388L194.982 93H193.542L192.21 88.116L190.878 93H189.438L187.374 86.388H188.766L190.146 91.704L191.55 86.388H192.978L194.322 91.68L195.69 86.388H197.034Z" fill="white"/>
</svg>
